<svg id="Слой_1" data-name="Слой 1" xmlns="http://www.w3.org/2000/svg" viewBox="0 0 506.49 800"><defs><style>.cls-1{fill:#dfdfe1;}.cls-1,.cls-10,.cls-11,.cls-12,.cls-13,.cls-14,.cls-15,.cls-16,.cls-17,.cls-18,.cls-19,.cls-2,.cls-20,.cls-21,.cls-22,.cls-23,.cls-24,.cls-25,.cls-26,.cls-27,.cls-28,.cls-29,.cls-3,.cls-30,.cls-31,.cls-32,.cls-33,.cls-34,.cls-35,.cls-4,.cls-5,.cls-6,.cls-7,.cls-8,.cls-9{fill-rule:evenodd;}.cls-2{fill:#231f20;}.cls-3{fill:#d46d2f;}.cls-4{fill:#cc652e;}.cls-5{fill:#4c4a54;}.cls-6{fill:#282a34;}.cls-36,.cls-37,.cls-7{fill:#ed2129;}.cls-8{fill:#f4c994;}.cls-9{fill:#d3dfe2;}.cls-10{fill:#eda85f;}.cls-11{fill:#efb369;}.cls-12{fill:#f6ac8a;}.cls-13{fill:#ea906c;}.cls-14{fill:#fff;}.cls-15{fill:#495770;}.cls-16{fill:#eff5f6;}.cls-17{fill:#983b31;}.cls-18{fill:#f0ac67;}.cls-19{fill:#eba054;}.cls-20{fill:#e69b52;}.cls-21{fill:#f6e4de;}.cls-22{fill:#f5ebde;}.cls-23{fill:#f7e1c8;}.cls-24{fill:#df242b;}.cls-25{fill:#973931;}.cls-26{fill:#80362f;}.cls-27{fill:#f6b55f;}.cls-28{fill:#efa448;}.cls-29{fill:#f7c584;}.cls-30{fill:#612c29;}.cls-31{fill:#3d3744;}.cls-32{fill:#f6b197;}.cls-33{fill:#f7e1c9;}.cls-34{fill:#888fa7;}.cls-35{fill:#b15131;}.cls-36{font-size:187.35px;}.cls-36,.cls-37{font-family:Flame;}.cls-37{font-size:74.18px;}</style></defs><title>error-404</title><path class="cls-1" d="M46,819.69s7.44-16.29,44.67-36.94S172,740.29,215.3,734.64s105.94-18.1,167.12-15.37,109.51,32.26,142,56.41,40.38,47.07,4.42,39.43C365.09,780.32,210.17,781.27,46,819.69h0Z" transform="translate(-45.97 -25.64)"/><path class="cls-1" d="M121,810.06s98-13.87,166.07-13.34,127.72,6.1,127.72,6.1-176.35-.4-251.16,13.09S77.23,827.13,91,819.55s30-9.49,30-9.49h0Z" transform="translate(-45.97 -25.64)"/><path class="cls-2" d="M130.47,795.32c-3.46-1.18-3.46-1.18-4.83-2-0.48-1.94-1-3.88-1.41-5.82-0.46-.1-0.91-0.17-1.34-0.25V787h1c-1.12-7.3-1.12-7.3-2.85-16-4.28.71-8.27,2.75-12.35,0.9-0.73-7.25-2-15-1.41-22.23q-0.17-8.82-.32-17.61c1.64-2.59,6.92-3.57,10-4.22,0.23-3.34-.41-6.65-0.8-10-0.57-15.82-1.5-31.75-1.66-47.56-0.71-.24-0.71-0.24-0.71-0.58h1c-2.48-39.66-1.23-79.63-.48-119.31-0.11-.24-0.23-0.46-0.32-0.67a3.39,3.39,0,0,1,.32-0.48q0.79-17.7,1.59-35.35a147,147,0,0,0,.93-16.74c2.28-24.86,5.13-49.73,7-74.61,2.92-14.19,4.05-29.07,5.6-43.51-2.82-1.34-6.49-1.23-8.54-3.89,0.41-1.07,1.34-9.69,2.62-18,0.87-3.08,2.14-5.88,2.53-8.94-3.26-6.89.75-17.84,3.87-24,0.55-.14,1.09-0.28,1.66-0.39,2.48,1.69,8.5,3.61,11.46,3.32,1.37-5.37,1.37-5.37,2-6.7,5.19-4,5.81-3.42,11.94-.81,2.73-5.52,6.79-10.17,12.92-6.44h1.57c5.74-4,9-3.61,14.87-.88,1.85,2.43,4.15,5.84,4.74,8.83a6.16,6.16,0,0,1,.71-0.26c0.61-2.19,5.47-1.84,7.2-1.83a15,15,0,0,1,6.24,6.6c2.39,0.26,8.45-5.62,9.91-6.8,9-2.58,11.89,8.34,8.38,15.51-2.73,3.56-4.28,5.72-8.06,7.72,4.92,1.76,10.39.88,15.49,1.8a5.36,5.36,0,0,1,.64-0.33,2.43,2.43,0,0,1-1.28-1.52c-0.25-.1-0.48-0.2-0.71-0.27-0.09-.24-0.16-0.48-0.23-0.72h-0.64c-1.64-4.41-2.62-10.18,1.57-13.44l-0.3-.34c1.25-.83,2.51-1.65,3.78-2.45v-0.67c1.48-.78,3-1.53,4.44-2.28V321.3c4.42-1.56,8.43-4.88,13-6-11.07-2.74-12.64-3.43-14.24-3.58V311c-5.9-1.39-11.89-6-16.54-10-0.09-.26-0.16-0.5-0.23-0.74-4.65-3.43-7.36-8.35-8.7-14l1-5.73c-1.39-.63-2.35-0.76-2.92-2.25a34.55,34.55,0,0,1-5.22,5.09c-6.17,1.55-6.47-2.68-6.81-7.54,0.64-2.31.64-2.31,0.55-3.56-3.92,2.21-4.37-4.27-4.44-6.51-6-1-5.76-7-3.08-11.54v-1.34c-2.46-3.27-7-12-3.39-15.73,1.14-.28,2.3-0.53,3.46-0.78-2.39-6.3-6.29-19.19,1.69-22.47,0.93-.06,1.89-0.1,2.85-0.14,0.48-3.68.11-7.45,4.42-7.42a12,12,0,0,1,2.21,3.51h0.64c0.48,1.65.48,1.65,0.8,2,0.32-.33.32-0.33,2.21-9.95,3.28-6,6.17-9.48,12.51-11.84,0.18-6.19-1.5-10.74-3.49-16.61-0.23-.07-0.43-0.12-0.64-0.17a3.9,3.9,0,0,1,.23-0.43,59.52,59.52,0,0,1-5-11.73c-2.6.43-5.9,2.91-8.22,4.4l-7.29,2.59c-9.48,2.6-9.48,2.6-10.75,3.23a191.1,191.1,0,0,1-38,3.67c-3.55-.7-11.89-2.25-13.28-6.25h-1c-5.31-12.16-4.17-20.66-.77-33.2a109.75,109.75,0,0,1,10.11-19.82c1.18-1.5,3.53-5.51,5.54-6.26,1.23-2.59,10.43-9.88,13.3-10.5V98.3c5.38-2.8,10.87-5.12,16.51-7.44,0.43-1.91.89-3.82,1.34-5.7,1.8-3.93,3.19-8.15,4.76-12.24,3.14-5.61,3.78-6.28,3.94-6.92h1c0.46-4.37,5.22-7.1,7.49-10.33a1.72,1.72,0,0,0,1.28-1.3c1.23-.37,4.76-4.4,5.15-5.52l2.53-1.13c7.36-6.27,16-10.09,24.67-14.06,7-2.62,8.54-2.92,8.86-3.25A239.85,239.85,0,0,1,263,25.64l25,0.21q6.94,1.2,13.92,2.46a83.07,83.07,0,0,1,15.19,6.75c2.53,2,2.53,2,3.17,2.2V37.9c1.57,1.18,1.57,1.18,2.21,1.36v0.67l1.34,0.58c0.34,1.22,3.69,5,4.74,5.34,0.07,0.24.16,0.5,0.25,0.77h0.64l1.8,2.4c1.64,0.09,2.44-.46,3.9-1.21C357.16,42.6,380,45.11,401,54c9.5,5.38,10.14,6.06,12.41,7.49,0.3,1,1.28,1.32,1.82,2.43,3.94,2.92,5.65,7.24,7.52,11.75,1.71,1.14,3.42,2.3,5.15,3.46,6.15,7.51,6.2,17.11,3,26.07-3.35,6.57-7.7,17-14.4,20.62a59,59,0,0,1-19.29,10.64c0.48,1.65,1.73,3.65,3,7.31,0,6.31-.21,10.23-5.22,13.91v0.65c-1.48.2-2.57,1.29-3.8,2.14-3.9,1.23-8,3.06-12.12,2.79a6,6,0,0,0-.23.57c-7,1.11-13.62,1-20.73.66-5.54-1.7-5.54-1.7-6.79-1.71,0.23,0.41.23,0.41-.16,4.13,0.46,6.38,0,16.73,2.92,22.34,2.8,1.34,6.22,2.75,7.9,5.71,3.26,1.05,2.92,7.6,4.67,9.6,0.43-.59.89-1.19,1.34-1.76,5.67-.14,4.67,6.56,4.74,11,1.71-.39,2.21-0.15,3.9.46,2.23,5.35,1.55,9.57.8,15.25-0.87.9,0.46,2.46,0.93,3.33,0,2,.09,4,0.16,6,1.59,1.18,1.59,1.18,2.23,1.36,1.5,4.77,1.53,7.35.77,12.29-2.85,6.28-2.85,6.28-3,7.26h-0.62c0.09,0.67.18,1.34,0.3,2,4.33,2.16-.18,8.46-3.14,9.58,0.75,4.36,3.17,10.9-2.85,10.28a10.65,10.65,0,0,1-2.48,5c-2,.08-2.6-0.26-3.3-0.19-2.14,4.28-5.28,11.64-9.41,14.31-1.5,4.07-7.29,5-8.54,8.55-1,.16-1,0.16-15.19,6.33-2.64.74-5.28,1.51-7.9,2.28,12.23,1.18,24,4.6,34.49,11.4,0.07,0.24.14,0.48,0.23,0.74,2.69,1.19,2.46,4.2,2.3,6.9h-0.64c-0.62,2.07-4,6-6,6.59v0.67c-2.21.87-3.9,2.81-5.69,4.42Q363,347.47,376,346.35c-4.42-7.54-5.31-13.45-1.66-22,1.18-.73,1.59-2.16,2.94-2.53v-0.67c4.35-1,5.4-.93,9.48,1.23,1.66,1.4,4.33,4.91,6.33,5.55,1.23-6.92,2.89-7.24,9.18-9.39,4.94,0.38,7.7,1.35,11,5.3,0.23,0,.48.05,0.73,0.1,5.54-4.8,7.27-6.15,14.56-5.18,0.61,0.27,1.25.54,1.89,0.83,0.73,1.34,1.34,2.88,2.85,3.18,1.18-2.19,4.26-2.4,6.49-2.93,3.64,0.84,6.29,2.23,7.43,6.2,5.13-1.51,8.09-1.72,11.23,3.08,0.57,2.78,1.16,5.55,1.75,8.33,2.21-.15,2.21-0.15,7.9-1.61a4.57,4.57,0,0,1,.23-0.6c4.76,0.23,10.3-2.16,14.65-4.08,6.1,0.05,5.85,17.47,5.76,20.69-1-.1-1.57.58-2.6,0.74a5,5,0,0,0,1.41,2.66A65.15,65.15,0,0,1,490,362.9v18.92a5.62,5.62,0,0,0-.8,2.31c-4.42,1.23-8.66,1.91-13,3.55,1.41,7.08,2.46,13.81,3.33,20.94,1.32,4.93,1.3,10,2.53,15a68.5,68.5,0,0,0,1.57,10.29c3.39,34.15,5.79,68.34,7.61,102.62,0.2,1.27.41,2.54,0.61,3.83,1.28,22.9,1.28,27.54,1.59,28.38,0.16,18.11,1,36.33,1,54.44-0.55,14.17,0,28.29-1.28,42.47,0,15.51-1.46,30.69-1.82,46.17a5.57,5.57,0,0,0-.55.26q-0.68,8.31-1.37,16.67a4.57,4.57,0,0,0,2.69.67c0.07,0.19.16,0.38,0.25,0.6,4.76,1.21,4.76,1.21,6.33,1.89a2,2,0,0,0,1.28.82c0.16,8.79.16,8.79-.16,20.91-0.43,1.65-2.14,2.68-3.33,3.8,0.84,0.39,1.69.78,2.53,1.19a53.22,53.22,0,0,1-2.53,18.55c-1.07.21-2.12,0.41-3.17,0.64V777.1a73.83,73.83,0,0,0-8.22-.88c-1.87,2.85-2.41,7.08-3.33,10.41-1.82,2.88-6.08,3.15-9.11,3a4.57,4.57,0,0,0-.23.6l-8.86-.07a9.27,9.27,0,0,1-.62-3.33c-2.23.91-4.44,1.83-6.65,2.76-2.53.07-5.06,0.17-7.59,0.27-1-1.08-1-2.13-1.25-3.64-0.66.31-.66,0.31-2.48,2.51-2.1.32-2.6,0.41-4.49-.59a42.17,42.17,0,0,1-15-2.56c-0.14-7.7,3.1-14.65,3.87-22.26a31.3,31.3,0,0,1-7.74-1.24,93.85,93.85,0,0,1-19.13-2.14c-20-1.62-39.79-4.18-59.79-4.82a829.74,829.74,0,0,0-89.23-1.72c-5.06.6-5.06,0.6-17.08,1.17-20.36,2.32-41.32,3.62-61,9.62q1,7,2.05,13.95c1,3.31,1.59,4.74,1.64,8.07-0.52.4-.52,0.4-3.08,1l0.32,0.34c-7.24,2.5-15.95,4.67-22.78.14l-1.34.06c-0.09.45-.16,0.93-0.23,1.41a40.55,40.55,0,0,1-8.22,3.42c-4.44,0-5.38-.38-7.29-0.4-1.94,2.37-3.05,2.87-6,3.1h0Z" transform="translate(-45.97 -25.64)"/><path class="cls-3" d="M131.1,790.69c-6.4-3.4-4.67-17-6.72-23.21l-0.55-.08a1.81,1.81,0,0,0-.66-1.15c-3.17.38-8.25,2.08-11,1.39-0.68-2.35-2.64-16-.36-18.12,1.64-.39,3.28-0.78,4.92-1.15-0.07-.38-0.14-0.77-0.18-1.15-6.08-2.06-6.08-2.06-6.45-2.49a66.51,66.51,0,0,1,1.12-11.63c2.28-.36,8.91-0.71,9.82-3.57,0.39,0,.77-0.07,1.16-0.09,0.3-3.65-.32-7.17-0.73-10.83-1-26.17-2.89-52.26-3.46-78.43-1.41-21.23-1-42.76-1-64,0.91-28.24,2.12-56.49,3.8-84.68,0.64-4.73.64-8.29,1.25-11.27,2.55-34.65,6.06-69.82,12.12-104-0.59-.27-0.59-0.27-5.33-0.31a13.35,13.35,0,0,1-4.24-3.14c0-6.52,2.67-13.88,4.78-20a2,2,0,0,0,1.25-1.66c0.73-.38.73-0.38,5.42-0.58-0.09-.48-0.18-1-0.25-1.41-1.75-.68-4.12-1-7.7-2.43,0-6.14.8-12.61,3.49-18.13a84.55,84.55,0,0,1,10.68,2.84c0.07-.21.14-0.43,0.21-0.62h0.64c0.14,2.08.3,4.16,0.46,6.26,1.25,6,2.53,10.3,2.51,11.47-6.1,4.47-5.88,12.47.32,16.35,0.59,6-1,12.06-1.87,18,0.09,0.53.18,1.08,0.3,1.63,0.64-1.62,4.49-17.26,4.94-18.12,3.39-.43,5.31-1.34,8.36-3l2.67-4.14c1,1.73,2.46,5.33,4.46,5.89l0.07,0.57c3,1.75,6.22,3.28,9.07.31,0.25,0,.52,0,0.8.05,4,3.59,7.31,4.27,11.87,1.7,2.76,1,5.13,2.72,8,3.72,11.94,0.1,13-16.9,14.4-26,14.17,1.41,28.34,2.67,42.53,3.65-11.25,6-19.52,17.18-31.62,21.62-3.74.26-6.61-.34-10.32-1.11-5.88,1.86,2.67,9.63,4.31,11.67a91.51,91.51,0,0,0,17.4,7.46q7.72,1,15.49,2.11c5-.29,5-0.29,13.87-1.53,6.74-2.29,16.22-5,20.55-11.44,6.13-4.54,9.36-12.47,11.75-19.64,1.62,0.3,5.38,5.45,6.4,7.27,1.59,1.14,3.69,2.42,4.65,4.22l0.66,0.22,0.07,0.57c1,0.29,1.55.92,11.94,7.6,4.42,2.07,8.75,3.82,13.33,5.46,3.17,0.46,6.33.91,9.5,1.39,10.82,0.21,32,0,37.77-12.56-1.82-4.63-11.82-4.71-16.1-6.51a82.33,82.33,0,0,1-9.2-9.47c-0.52-1.46-3.3-2.7-4.58-3.55l0.59-.35c10.87-.34,21.55-3,32.46-2.67a62.13,62.13,0,0,1,11.87-1.41c0.41,7.29,1.44,14.35,4.62,20.92a27,27,0,0,0,5.85,3.54c3.21-.24,6.79-0.61,8.06-4.21,0.34-.19.71-0.35,1.07-0.52,3.08,5.4,12.87,2.93,14.74-2.34H428c3.53,3.92,7.81,2.29,10.64-1.44,1.28-1,2.21-1.65,2.53-3.28a4.36,4.36,0,0,1,.55-0.09c0.14-.43.27-0.83,0.41-1.24,1.37,0,2.51-.07,3.67.65-2.67,7.82,3.46,11.76,9.93,13.39a5.9,5.9,0,0,0,1.07,2.54c1.48,6.63,2.3,13.33,3.51,20,0.32,0.67,1,7,1.23,7.15,0-10.13-1.32-20.49-1.69-30.67,4.76-2.33,5.13-9.54,4.53-14.28-1.89-2.67-2.78-3.51-3.05-4.23-5.33-2-5.33-2-6.54-2.11a15.26,15.26,0,0,1,3.6-7c0.23-1.14.46-2.29,0.68-3.41,0.41-.38,9.59-2.29,19.7-4.85,6.13-3.27,6.2,4.66,6.2,9.23-0.87,3.39-3.94,5.92-7.13,7.06a1.67,1.67,0,0,0-.52,1.38c1,0.3,1,.3,5.42.33,6.29,4.78,3.62,18.36,3.05,25.38-5.1,1.49-6.31,2.1-12.37,3.74-1.66,1.87-.91,9.14.77,10.62,0,6.12,2.26,12.25,2.57,18.09l-0.41-.58v0.81c0.3,0,.59.05,0.89,0.1,0.25,7.24,2,14.83,3,22a2.25,2.25,0,0,0,.27,2.25c6.15,55.94,8.09,112.52,9.79,168.76,0,28.17-.68,56.39-1.53,84.53-1.12,13-2.23,26.1-3.21,39.14l0.68,1.37,10.89,3.1c-0.3,6.16-.48,12.35-1.8,18.36-3.74,4.22-5.67,4.68,0,7.36,1.25,4.07-1.39,9.33-2.53,13.19-3.85,0-7.2-1.95-11.21-1.36a101.59,101.59,0,0,1-3,12.19c-2.62,2.73-9.29,2.62-12.94,2.78-0.23-1.34-.43-2.68-0.64-4,0.11-1.53.59-2.86-.18-4.18-0.5.07-1,.16-1.46,0.25-1.57,4-8.54,7.65-12.41,8.45,0-3.23.07-6.45,0.11-9.65-2-.85-1.53.56-3.1,1.65-0.87,2.55-3,3.77-4.58,5.43-4.9,0-9.27-1.08-14.08-2.15,1.41-7.09,3.76-13.95,5-21-0.07-.84-0.14-1.65-0.18-2.46a6.63,6.63,0,0,0-3.49,0,92.53,92.53,0,0,1-10.84-2.07c-3.39,0-3.39,0-10.66-.76a147.35,147.35,0,0,0-29.11-2.85c-27.65-2.86-55.69-4.17-83.46-4.4-20.89.49-20.89,0.49-32.57,0.4-10.34,1-20.66,1.83-31,2.39-0.75.21-1.48,0.42-2.21,0.65A418.65,418.65,0,0,0,171,760.22c-0.87,6.73,2,14.64,2.6,21.55-1.12,3.55-10.41,4.67-13.78,4.64l-4.83-1c-1.66-3.81-2.26-4.44-2.8-6l-1,.28c-1.21,2.59-1.21,2.59-1.39,3.93l-0.57.07c-0.25.64-.48,1.29-0.71,1.93-3.21,1.29-6.15,3.49-9.61,3.34-3.46-4.52-3.6-7.37-4.72-13.35a1.29,1.29,0,0,0-1.3-.11c-0.14,3.8-.25,7.6-0.36,11.42L133,787v3.66l-1.91,0h0Z" transform="translate(-45.97 -25.64)"/><path class="cls-2" d="M149.78,773.59c-2.12-1.43-3.74-10.5-4.53-13.25-4-.92-8-1.64-11.62-3.82-2.78-7.65-1.55-11.7,3.17-17.9,1.34-.8,2.69-1.6,4-2.38-0.57-10.49-2.39-21-2.28-31.44,0.32,1.77.64,3.54,1,5.34a3.92,3.92,0,0,0-.43.45c0.18,0,.36.12,0.57,0.2,0.87,8.08,2.23,16.91,5.13,24.49,2,0,3.8-.35,5.6.6a10,10,0,0,1,7.77,5.54v5.4c-0.75,2.89-2.23,5.45-3.3,8.24l-0.57.07c-0.14.41-.27,0.81-0.39,1.24-0.84.18-.84,0.57-1.25,1.33-0.66.19-1.25,0.8-4.05,2a45.18,45.18,0,0,0,2.14,13.9h-0.93Z" transform="translate(-45.97 -25.64)"/><path class="cls-2" d="M451.92,767.79c-0.18-.22-0.34-0.43-0.5-0.63,0-4.68,1.59-9.52,1.89-14.27a12.59,12.59,0,0,1-.77-12.62c1.37-.82,3.78-1.78,4.44-3.28a23.84,23.84,0,0,0,5.28-2.06c1.64-7.25,3.51-14.33,4.19-21.76l0.66-.21c0.16,0.26.32,0.55,0.48,0.84-0.32,3.51-3.71,20.09-.07,21.46,3.6,4.26,9.2,12.6,4.12,17.88A8.79,8.79,0,0,0,468,757c-5.15,2.66-7.33,3.76-11.91.38-1.44,3.33-2.39,7.32-4.21,10.43h0Z" transform="translate(-45.97 -25.64)"/><path class="cls-4" d="M141.86,756.58a34.41,34.41,0,0,0-4.1-1.68,4.73,4.73,0,0,0-1.14-2v-5.4c1.37-4.07,3.8-6.32,7-8.66,2.71-.14,4.31-0.51,6.79.68,2,0.26,3.12.38,4.24,2.16,0,5.83-1.87,11.41-7.08,14.09-1.91.25-3.83,0.52-5.72,0.79h0Z" transform="translate(-45.97 -25.64)"/><path class="cls-4" d="M460.15,754.6c-2.76-3.22-5.28-6.23-5.28-11a14.46,14.46,0,0,1,10.46-5.72c2.44,2.12,5.4,6,5.4,9.48-3,3.75-5.72,6.79-10.57,7.2h0Z" transform="translate(-45.97 -25.64)"/><path class="cls-2" d="M161.17,723.89c-1.44-.75-1.39-1-2-2.6l-0.52-.08c-4.17-17-4.78-35.43-6.51-52.79-1.85-27.69-3.8-55.32-5.4-83-0.3-38.83-.61-42.82-0.61-62.16,0.27-3.84,1.25-9.76.32-13.52,1.41-15.19-.68-30.81,1.57-45.87,0.36-8.41,1.59-23,1.91-31.5a7.9,7.9,0,0,1,.91-3.29c-1.44-1.11.87-14.07,1.3-16.93a257.86,257.86,0,0,1,3.17-26.52A34.72,34.72,0,0,1,157,381.7c17,2.29,33.58,4.63,50.57,6.18,3.87,0.73,12.73,1.47,13.76,1.84v1.94c-1.94.87-5.54,2.06-6.42,4.13l-0.89.06-0.07.93c-2.19.27-5.31,7.72-6.2,9.6,0,3-.5,7.4,2.71,9,2.89,5.19,10.77,8.29,15.95,10.26,32.51,17.31,70.75,18.92,106.13,13.45,7.13,0.06,14.92-3,21.84-4.79q9.94-4.58,19.93-9.13c0.61-.54,1.25-1.09,1.89-1.63a25.54,25.54,0,0,0,13.17-15.68c0-2.46.5-5.54-.5-7.79-1.21-.32-1.3-2.14-2.8-2.48-0.09-.79-0.5-0.89-1.14-1.3,0-.36-0.09-0.69-0.14-1,0.27-.17.55-0.33,0.82-0.47,8.63-.64,22.87-2.51,41.53-4.34a27.82,27.82,0,0,1,6-1c2.69-1.39,10-2.86,12.85-.75,2,4.25,1.28,10.26,2.57,15,0.3,4.11.59,8.25,0.89,12.39,0.36,3.18,2.92,14.82,1.57,19.32,0.77,9.37,2.26,19.42,1.59,28.83a771.12,771.12,0,0,1,2.23,88.53q-0.14,18.39-.27,36.77c-1,11.84-1.87,24-1.28,35.83-1.39,15.4-2.14,30.85-3.85,46.18q-0.65,8.45-1.25,16.91c-1.82,11.91-3.46,23.82-6.36,35.55-0.25.5-.5,1-0.75,1.55-9.64-3.21-20.87-4-30.82-5.47l-2.21-1.33a3.53,3.53,0,0,1,.46-2.12l6.61-1.81c3.6-2.91,6.2-6.5,4.26-11.39A4.4,4.4,0,0,1,418,701.3c-4.85-3.77-8.68-6.33-14.78-7.1-3.55,1.12-6.08,1.48-5.85,6.09,3,3.11,6.61-.52,10.59.92a6.13,6.13,0,0,0,2.82,1.86c1.28,2.35,2.19,4.8,1.57,7.64l-0.8.35-0.14.64a29.65,29.65,0,0,1-4.42,1.16A76.51,76.51,0,0,1,391.76,709c-9.64-1.78-18.86-5.37-28.29-7.91-0.82,0-12.21-4-16-5.08l-1.25-.68a40.33,40.33,0,0,1-10.55-3.07l-6.86-1.71c-5.51,0-7.08.66-9.34,5.87-1,.83-1.48,1.28-2.78.65-4.33-9.36-16.33-7-23.1-2-0.87,2.65-1,3.07-3.23,4.49,0-2.94-6.2-5.21-8.06-6.07-7.27-1.16-14.31-.26-21.44,1.47-7.61,2.59-7.61,2.59-14.56,4.54C238.55,703,192,723,192,705.2c2.3-3.66,4.81-4,8.75-4.75,3,0.86,5.15,2.27,5.15-1.75a3.35,3.35,0,0,0-2-1.33,5,5,0,0,1-.09-0.57,15.2,15.2,0,0,0-9.11,0c-1.78,1.23-1.78,1.23-2.76,1.51,0,0.19,0,.38-0.07.6-1.25.47-1.87,1.37-3.1,1.69-5,10-2.21,10.5,6.88,15.37,2.67,0.5,4.37,0,4.76,2.91-9.64,3-20.61,2.48-30.61,3.81-0.55.69-8.15,1.13-8.61,1.17h0Z" transform="translate(-45.97 -25.64)"/><path class="cls-5" d="M165,719.62c-0.48-1-.8-3.54-1.46-5.7-0.32-3-.57-3.16-3.17-17.61-1.53-13.94-3.62-27.8-4.4-41.78l-1-7.32q-0.55-21.94-2.87-43.82c-0.23-11.5-1-22.85-.93-34.37-0.93-11.12-.93-11.12-1.28-12.13C149.6,536,150,515,150.83,494.1c0.61-1.26,1.34-2.88.66-4.22,0.61-20.52,1.8-41,2.85-61.46,1.89-19.22,1.89-19.22,1.89-22.21a156.46,156.46,0,0,0,3-21.17c3.6,0.56,3.78.8,33.58,4.72,2.53,0,18.43,2.16,20.64,2.23-0.41,1.86-2.3,2.11-2.64,3.75l-0.57.07c-0.23.52-.46,1-0.68,1.6l-0.57.07c-0.59,1.36-2.1,3.21-3.42,5.9L204,408.66c0,4.71,2.16,6.59,4.78,10,7,5,13.8,10.29,22,13.28,0.91,0.65,5.06,2,6,2.68l11.12,4.11a267.27,267.27,0,0,0,37.9,7.29c17.79,0.15,37.29.57,54.42-4.85,1.46-.23,2.94-0.43,4.42-0.63a154.45,154.45,0,0,0,28.79-11.37c2.87-2,13.58-7.6,14.46-11.13,6.4-5.2,6.06-12.45,4.26-20.06,9.79-.78,19.34-2.06,29-3.6,7-.61,14.81-3,21.69-2.76,1.57,13.56,4.12,27.68,4.12,41.3,0.32,1,.32,3.3.64,4,1,13.63,1.28,27.32,2.57,40.93,0.41,17.78.91,35.61,1.55,53.37,0,27.91-1.59,55.81-1.59,83.69-2.14,33-5.56,66.24-10.75,98.81-2.82,7.29.57,8-6.83,7.35-2-.47-4-0.92-6-1.36-10.36-1.38-10.36-1.38-10.59-1.62,0.48-.47,3.35-1.79,5.17-3,4-6,3.19-10.77-1-16.21l-0.75-.29c-1.07-3.4-8.93-6-11.75-7.27-6-.43-13.1-0.06-13.1,8.33,1.34,2.64,3,3.49,5.58,4.9,3.55,0,7.22-1,9,2.61-0.27.64-.55,1.29-0.82,2a48.9,48.9,0,0,1-18.72-3.67c-21.32-4.6-41.62-13.37-62.87-18.45-4.65,0-6.42,1.86-9.82,4.29-0.16-.26-0.3-0.53-0.43-0.79-9-3.54-18.54-4.46-25.35,3.68,0,0.43.09,0.88,0.14,1.34h-0.64c-0.77-2.66-5.26-4.46-7.31-5.56-10.57-2.29-23.07,2.08-33.17,5.36-15,6.4-32.48,13.66-48.77,14.53a40,40,0,0,1-5.47-1.38c0-3.82,2.39-4.42,5.54-3.92,5.13-.34,7.33-0.82,6.74-6.71-1-1.39-1.46-1.59-2.12-3.29-3.28-1.32-5.85-1.43-9.38-1.66-1.71.65-3.42,1.31-5.1,2a8.44,8.44,0,0,0-.3.81c-7.11,3.67-10.14,10-6.63,17.67a6,6,0,0,1,.61.2l0.07,0.57c1.87,1.23,1.87,1.23,6.54,3.21-1.28.18-4.1,0.8-5.22,0-0.59.21-1.18,0.44-1.75,0.68-5.31-.12-10.61.68-15.9,1.13-0.25-.15-0.5-0.27-0.75-0.39,0,0.19,0,.38-0.07.6-1.07.09-2.12,0.2-3.17,0.31h0Z" transform="translate(-45.97 -25.64)"/><path class="cls-2" d="M223.5,719.44c-3.49-.53-6-0.55-6.33-0.89a2.13,2.13,0,0,1,.32-0.33c-0.21-.14-0.39-0.29-0.57-0.41a6.92,6.92,0,0,1,.25-0.74h0.64v-1.34c11.66-4.42,22.66-12.38,35.1-14.47,3.67-2.43,10.75-3.09,15.19-3.86l9-.57c1.55,0.68,3.1,1.39,4.65,2.09,0.55,1.08,1.12,2.16,1.69,3.26-1.94,5.69-5.67,6.19-10.91,4.71-0.21-.48-0.39-1-0.57-1.41a5,5,0,0,0-2.92.41v0.65h-0.64a4,4,0,0,0-.8,2.67,20.59,20.59,0,0,0,6.81,3.69v1c-3.37-.27-7.08.71-10.43,1.08-13,.87-26,1.74-39,2.9,0,0.33,0,.67,0,1,0.23,0.12.46,0.24,0.68,0.39-0.75,0-1.48.08-2.21,0.15h0Z" transform="translate(-45.97 -25.64)"/><path class="cls-2" d="M390.85,716.84c-18-1.63-18-1.63-19-2-17.08-1.15-34.49-2-36.08-2.28-2.21-2.34.75-3.1,2.53-3.8,1.73-3.62-.75-6.05-4.19-4.46-2.21,3.83-2.62,3.9-6.88,3.86-4.44-2.28-6.08-6.26-2.05-10.46l0.32,0.31c0-.33.09-0.67,0.16-1,2.94-.91,5.31-1.8,8.54-1.77,0.32,0.34.32,0.34,19.29,5.8,0.32,0.22.64,0.44,1,.68,12.73,3.88,25.58,7.57,38.27,11.6,0.89,1.18.87,1.37,0.71,2.92a5.39,5.39,0,0,1-2.6.55h0Z" transform="translate(-45.97 -25.64)"/><path class="cls-6" d="M226.66,714.83a3.83,3.83,0,0,1,.23-0.43C233,712,240.1,708,246.5,706.92a5,5,0,0,1,.09-0.57c10.3-3.19,19.86-6.31,30.71-6.22a9.62,9.62,0,0,1,3.26,1.72c0.07,2.84-3.89,3.48-5.95,2.87-3.05-4-4.58-2.48-8.54-.21-1.14,2.4-1.69,4.43.32,6.69-9.34,1.09-33.07,2.83-39.73,3.64h0Z" transform="translate(-45.97 -25.64)"/><path class="cls-2" d="M283,712.62l-1.14-1c0-.41,0-0.79,0-1.17,3.71-2,7.68-3.85,8.36-8.75,2.51,0.24,3,.53,4,3,0.89,0.56,2.32,2.48,4.67,4.24v1.58c-5.4.74-10.55,1.66-15.92,2.07h0Z" transform="translate(-45.97 -25.64)"/><path class="cls-6" d="M375,713.08c-10.73-3.1-23.42-2.56-34.42-2.89a12,12,0,0,0,1.5-5.36h-0.64c-1.89-5.2-10.68-4.2-12,.9-1.16-.13-2.32-0.26-3.49-0.36-1.32-5,3.6-6.78,7.59-6.75,11.41,2.32,22.46,6.59,33.53,10.24q7.11,2,14.24,3.94v0.33l-6.31-.05h0Z" transform="translate(-45.97 -25.64)"/><path class="cls-2" d="M311.13,712.21a4.67,4.67,0,0,0-2.85-.36c0-.45.09-0.91,0.16-1.34,5.69-5.31,7.65-11.62,10.77-2.92,1.64,1.76,2.73,2,3,4.37-3.78-.08-7.33-0.37-11.07.24h0Z" transform="translate(-45.97 -25.64)"/><path class="cls-6" d="M316.82,709.92c-0.84-.13-1.69-0.23-2.53-0.33v-0.67c1-.52,1.46-1.52,2.6-1.41a4.06,4.06,0,0,1,.41,2.11,5.36,5.36,0,0,0-.48.31h0Z" transform="translate(-45.97 -25.64)"/><path class="cls-6" d="M289.3,709c0.73-1,1.48-1.42,2.16-2.49,0.25,0,.52,0,0.8.05,0.36,0.5.73,1,1.09,1.54l-4.05.9h0Z" transform="translate(-45.97 -25.64)"/><path class="cls-7" d="M245,388.41c-1.57-.52-7.9-1.24-10.75-1.93-1-.65-3.8-1.35-10.43-4.05a29.84,29.84,0,0,1-9.75-7.66c1.53-.39,1.53-0.39,6.9-1a67.17,67.17,0,0,0,17.08-10.49,1.6,1.6,0,0,0,1.16-1.23c0.34-.09.68-0.16,1-0.23a7.37,7.37,0,0,1,.23-0.76c1.64-.7,4.92-3.54,5.47-5.16,0.41-.12.82-0.23,1.25-0.32,0.55-1.93,6.45-4.37,8.25-5.4,8.22-1.27,8.22-1.27,13-1.56a16.54,16.54,0,0,1,4.12,2.69c-6.26,3-11.66,7.1-17.72,10.32-0.39,1.88-3.08,2.89-3.8,5.27-1.85.94-2.39,1.89-2.3,4,3.87,1.61,9.79-4.77,13.37-6.94v-1.31l-1.89.63V364c-1.87.92-3.74,1.83-5.58,2.77a1.37,1.37,0,0,1,1.14-1.14,7.28,7.28,0,0,1,.23-0.76c5.58-4.11,13.69-10.93,21-10.86a10.19,10.19,0,0,0-2.85,4.13,1.72,1.72,0,0,0-1.28,1.33h-0.61c-1.71,2.3-4.4,5.17-4.76,8.25a6.19,6.19,0,0,0-.71.23c-0.71,1.74-.73,2.69-0.55,2.07,2.05-.46,2.53-4.16,4.65-5,2.41-3.92,6.36-6.61,9.13-10.27,3.69,0,7.15,1.61,10.68,2.74,1.39,3-3.37,9-4.53,11.72l-0.57.07c-1.43,3.57-6.33,7.52-9.07,10.13-9.86,6.85-19.61,8.82-31.5,9.06h0Z" transform="translate(-45.97 -25.64)"/><path class="cls-7" d="M344.34,382.59c-9.91-.89-18.06-4.28-26.88-8.68-5.33-4.11-13.69-8.43-16.77-14.91,3.17-.14,4.1-0.47,5.69-0.45,11.21,6.21,24.46,14.76,37.7,14.15,0.2-1.62-.5-2.15-1.64-2.9-2.53-.67-2.53-0.67-8.86-3.4-4.42-2.35-4.42-2.35-5.06-2.36a2.15,2.15,0,0,0-.32.33l9.82,5.39a2.12,2.12,0,0,0-.32.33c-7.52-1.38-15.15-5.34-21.84-9.14-1.57-1.33-1.57-1.33-2.21-1.5v-0.67a20.19,20.19,0,0,0-2.85-1.67v-0.67c3.05,0,6.1-.07,9.18-0.09,4.31,1.42,14,6.09,18.34,5-0.3-4.45-4.87-4.41-8.54-5.54-4.1-.85-9.41-1.08-13.21-2.86a6.94,6.94,0,0,1,.25-0.74c1.57-.2,3.92-2.55,5.38-3.44,2.62-.1,5.26-0.19,7.9-0.27a76.12,76.12,0,0,1,15.19,6v0.64c0.41,0.1.84,0.22,1.28,0.35v0.67a1.93,1.93,0,0,1,1.25,1.35c1.69,0.4,5.22,6.45,6,7.67,1,0.51,2.21,1.83,4.74,3.19a84.61,84.61,0,0,0,8.86,2.73c2.53,0.43,4.92.33,6.49,2.54-1,5-11,6.89-15,8-5.06.63-5.06,0.63-14.56,1h0Z" transform="translate(-45.97 -25.64)"/><path class="cls-8" d="M195.66,369.74c-1.46-1.54-4.28-.78-5.44-3.22l-0.71-.36c0-1.91,1.8-4.64,2.48-6.45,1.48-11.17,3.12-23.39,0-34.43,0-.62,0-1.22,0-1.82,13.46-10.93,13.19,25.61,12.92,31.05-1.12,6.32-2.8,9.7-6.65,14.71-0.89.16-1.78,0.34-2.64,0.53h0Z" transform="translate(-45.97 -25.64)"/><path class="cls-4" d="M454.45,370.25l-4.76-1.88c-2.48-2.63-2.28-10.75,1.59-11.93,0.2-.38.41-0.76,0.64-1.14,3.74-.14,8,1,10.27,4.39-0.41,5-2.6,10-7.74,10.57h0Z" transform="translate(-45.97 -25.64)"/><path class="cls-8" d="M182,366.64c-0.3-.48-0.3-0.48-2.67-1.58l-1.94-2.76a30.63,30.63,0,0,1,1-7.35c-0.25-12.91-.82-25.53-5.38-37.8,0-.62,0-1.24,0-1.84,4.69-2.42,8.13-3.06,11.8,1.7,4.21,1.49,5.88,14.6,6.49,18.14,0,7.22,1,24.45-4.85,30.33a14.63,14.63,0,0,1-4.46,1.16h0Z" transform="translate(-45.97 -25.64)"/><path class="cls-8" d="M401.92,367.14c-0.68-.53-1.37-1-2-1.55-6.13-10.66-4.56-25-3.85-37a13.72,13.72,0,0,1,4.26-7.06c9.7-3.38,12.19,8.11,14.74,14.87,0.34,10.21-.21,22.24-7.63,30a15.69,15.69,0,0,1-5.49.81h0Z" transform="translate(-45.97 -25.64)"/><path class="cls-8" d="M418.37,367.27c-2.73-2-3.33-2-3.33-5.38,3.12-8.24,3.87-16.65,3.46-25.44-0.62-3.33-1.25-4.67-1.57-6.39,1.78-3.47,2.51-4.47,6.1-6a5,5,0,0,1,.09-0.57l5.17-.1a4.56,4.56,0,0,0,1.89,2c3.17,6.74,3.17,11,2.87,18.42-1.8,8.18-4.49,19.1-12.14,22.93l-2.55.48h0Z" transform="translate(-45.97 -25.64)"/><path class="cls-8" d="M169.08,364.21c-10.93-6.81-10.93-23.53-10.93-35a70.33,70.33,0,0,1,2.51-8.58c1.55-3.24,2-4.5,5.54-5.09,2.89,0,2.78.55,4,3.16,0.62,2.66,1.25,4,2.53,9.65,1.53,10.79,4.08,24.55,0,35a6.21,6.21,0,0,1-3.6.85h0Z" transform="translate(-45.97 -25.64)"/><path class="cls-4" d="M149.78,363.72c-5.47-2.91-5.65-6-3.49-11.64a4.34,4.34,0,0,1,.55-0.09l0.27-.71h0.55c3.23,5.12,4.35,6.58,9.89,7.8-2,3.81-3.8,3.82-7.77,4.64h0Z" transform="translate(-45.97 -25.64)"/><path class="cls-8" d="M430.72,363.41c-0.27-.19-0.52-0.39-0.77-0.56,0-3.06,2.62-6.79,3.76-9.77,0.36-2.41.36-2.41,1.89-8.28,0.14-5.3.91-10.48-.93-15.54,0-4.68,5.42-5.5,8.82-4.06,0.43,0.58.87,1.15,1.3,1.76,4.58,12.32.8,20.94-5.72,31.64-2.73,2.61-4.4,4.53-8.34,4.81h0Z" transform="translate(-45.97 -25.64)"/><path class="cls-8" d="M444,357.55l-0.21-.5c3.94-8,6.17-14.62,5.47-23.85-1.34-5.48,4.08-5.94,7.22-3.14,2,6.33.07,11.88-2.53,17.3-3.39,5.2-4.46,8.42-10,10.19h0Z" transform="translate(-45.97 -25.64)"/><path class="cls-8" d="M156.09,354.81c-5.88-1.91-7.86-8.69-9.66-14.32-0.89-6.51-3.87-24.91,7.77-19.22l0.07,0.57c2.78,1.17,1.09,10.79,1,13.32,0.93,6.08,3.58,13.67,1.44,19.65h-0.64Z" transform="translate(-45.97 -25.64)"/><path class="cls-7" d="M300.37,353a6.06,6.06,0,0,0,.93-2.31c2.21-.7,3.42-3.91,5.38-5.5,0.73-1.26,1.48-2.5,2.23-3.73a4.29,4.29,0,0,1,.55-0.09c0.23-.52.46-1,0.71-1.57a4.36,4.36,0,0,1,.55-0.09c0.09-.72.21-1.43,0.32-2.15a2.35,2.35,0,0,0-1.82-.56c-1.07,1.21-2.12,2.42-3.17,3.63-2.48,4.16-5.6,10.87-10.73,11.67,0.41-3.2,1.55-6.68,1.16-9.88h-1.41c-1.39,3.31-.71,6.9-2.57,10.06-7.24-.06-25.83-3.7-25.83-13.41,1.71-5.39,6.83-8.4,11.82-10l11.09,0.09A136.17,136.17,0,0,0,305.39,326c1.41,0.06,1.59.32,4.49,1,3.23,1.58,6.47,2.83,9.77,4.36,3.58,2.85,4.87,3.65,4.87,8.67-5.31,7.72-15.42,11.25-24.15,13h0Z" transform="translate(-45.97 -25.64)"/><path class="cls-9" d="M341.81,350.05c-5.9-3.18-10.73-4-17.22-3.68,0-.6,0-0.6.77-2.1,2.46-.29,2.35-5.62,2.35-7.27-1.64-3.67-4.94-6.06-8.36-7.72,0-.22-0.07-0.41-0.09-0.6-1-.61-2.07-0.95-2.64-2.05,2-4.67,15.24,1.51,18.36,3l2.87,2.1c0,0.26,0,.55,0,0.84l-3,1.05a4.86,4.86,0,0,0-.18.62c1.3,1.13,3.9.65,5.24-.34,0.18-2.77-.84-4.52-3.78-5.46-0.66-1.56-3.37-2.56-4.78-3.22a90.92,90.92,0,0,1-11-4.63c4,0.32,8,.66,12,1,3.28,0.91,6.58,1.85,9.89,2.78,6,4.18,12.85,2.59,14.31,11.23-0.48,1.19-1,2.41-1.44,3.62l-0.57.07a37,37,0,0,1-12.73,10.77h0Z" transform="translate(-45.97 -25.64)"/><path class="cls-9" d="M239.94,345.21a18.94,18.94,0,0,0-5.06-.85c-0.64-.94-1-1.73-2-2.12a20.2,20.2,0,0,1-2-8.71c1.28-2.76,4.44-6.49,7.45-6.89V326c7.24-3.28,13.94-6.57,21.82-8.28,0.2,0.38.41,0.77,0.64,1.15-4.94.82-9.54,6.3-14.24,7.53V327c-1.34.39-2.37,0.58-2.85,2l-1.37.56c-0.61,2.15-3.33,2.36-4.33,4.36,1.25-.49,4.74-3.11,6-3.77,2-2.11,12.6-7.52,15.17-7.5-4.56,5.72-8.54,13.48-9.18,21,0.34-.09.68-0.19,1-0.25,0.87-2.45,1.73-4.91,2.62-7.36,1.32-2.5,5.85-12.28,9.09-12,1.69,2.24,2.87,5.09,5.13,6.73,0,0.24.11,0.48,0.18,0.72l-0.57.07c0,0.19,0,.38-0.07.6l-0.55.07c-2.23,3.68-3.35,4.3-3.44,8.69,0.27,1.15.55,2.32,0.82,3.5-4.58.39-4.58,0.39-24.35,0.78h0Z" transform="translate(-45.97 -25.64)"/><path class="cls-8" d="M382.31,345.42l-1.57-1c0-.22-0.07-0.41-0.09-0.6l-0.55-.08a46.08,46.08,0,0,1-4-8.3,17.76,17.76,0,0,1,3.35-10.94c4.78-1.54,8.52,3.2,11.82,6.26a1.21,1.21,0,0,0,.93,1c0.59,4.21.27,8.51,0.2,12.76-3.19.5-6.61,0.42-10.11,0.92h0Z" transform="translate(-45.97 -25.64)"/><path class="cls-8" d="M208.94,341c-2.05-10.65-2.05-10.65-2.05-12,0.68-.76,3-2.15,7.74-6.08,2.73-1.12,3.69-.9,6.33.22,3,8.6-4.35,16.55-12,17.82h0Z" transform="translate(-45.97 -25.64)"/><path class="cls-8" d="M270.31,328.88c-0.32-.12-0.64-0.24-0.93-0.34-0.68-2.44-5.54-3.85-4.81-6.9,7.36,4.08,7.36,4.08,9.34,4.81v0.91a9.4,9.4,0,0,1-3.6,1.52h0Z" transform="translate(-45.97 -25.64)"/><path class="cls-8" d="M285.18,325.35a63.81,63.81,0,0,1-9.79-2.57c-5.69-2.7-5.69-2.7-7-3-1.09-.82-1.84-1.64-3.17-1.84v-0.67c-3.08-.86-8.15-5.11-9.18-8.37h-0.61l-4.33-7.37a4.45,4.45,0,0,1-2.19-1.91c-1.89,3.54,4.51,8.66,5.31,11.82a5.68,5.68,0,0,1,.57.1,1.17,1.17,0,0,1,0,1.17c-3.3-.72-6.61-1.44-9.91-2.14l-12.55-5.39c-4.37-3.45-13.44-8.67-15.24-14.8l-0.55-.08c-2.16-7.5-.62-16,1.41-23.29,0.23-2.22,2-9.57-.27-11.09-0.73,2.12-3.94,5-5.54,6.93-4.65,1.9-5.58-2.65-7.45-6.39-1.59-6.73-5.51-29.56,6.49-29.46,4.28,1.59,5,4.92,7.06,9.07,0.5,1.56,3.17,10.92,6.1,9.73l-0.14-12.35q1.26-10.2,2.57-20.36,2.56-8.22,5.13-16.4c1.25-2.64,3.62-8.79,6.29-9.82,3.17-5,7.36-4.74,12.82-6.15-1.3,4.53-3.3,9.1-2,13.91,1.91,2,4.65-1.32,6-2.39l1.66,0.3c8.86-5.25,8.86-5.25,12.57-7.16,7-2.12,10.23.09,16.7,2.74l1.37-.56c1.09-3-.34-6.93-1.16-9.85,1.21-.21,1.21-0.21,14.51.89,3.05,0.53,6.13,1.08,9.2,1.63-1.73,3.09-5.4,7.84-3.17,11.37,1.75,0,2.53.07,4-.85a4.93,4.93,0,0,1,.09-0.57c5.92-1.93,8.09-.7,13.07,3.29,1.44,1.68,3.3,4.69,5.6,5.18l0.07,2.22a4.36,4.36,0,0,1,.55.1c0.34,0.84.68,1.7,1,2.57l1.48,0.23c3.6-3.75-.59-15-0.91-19.05q6.22,2,12.44,4c0.18,0.46.39,0.91,0.59,1.39a5.62,5.62,0,0,1,.57.1,274,274,0,0,1,15,33.58c1.55,7.44,4,14.56,5.22,22.12,1.12,2,.34,4,1.73,6.11,1.32-2,1.41-5.41,2.1-7.84,0.23,0,.48.12,0.73,0.2,0.09,1.08.25,2.56,1.62,2.43a19.64,19.64,0,0,0-.27-5.4c0.57-.69,1.14-1.38,1.73-2.06,0.11,1.24.11,1.24-.32,4.32,0.34-.07.71-0.11,1.07-0.16,0.77-1.62,2.57-10-1.34-8.52-0.71,1.07-3.19,6.16-4.49,6.51,0.23-5.37,1.39-9.93,7.4-9.59,2.89,4.06-1.64,15.61-3.14,19.62-1.3,2.4-2.19,3.26-2.57,4.06l-1,.21c-0.46-1.49-.46-2.06-1.85-2.29-0.23,4,.09,7.89.07,11.9-1.25,11-1.25,11-2.23,16-0.25.19-.46,1.41-3.46,6.52-1,3.31-2.3,6.27-5.13,8a25.2,25.2,0,0,1-11.71,9.53c0,0.19,0,.38-0.07.6-4.9,2.16-9.54,4.91-14.44,7-7.08,1.69-7.27,1.95-9.27,2.48,0.27-1.62,2.44-2.92,3.58-4,2.3-1.77,8.93-5.61,10.8-8.73l-0.75-.65c-2.21,1.63-8.59,3.46-9.2,6.42-0.61.23-1.23,0.47-1.82,0.73-0.09.21-.18,0.45-0.27,0.69a123.37,123.37,0,0,1-16.77,10.83c-3.9,1.31-6.74,2.62-11.16,3.9a72.42,72.42,0,0,1-9.84.78h0Z" transform="translate(-45.97 -25.64)"/><path class="cls-10" d="M269.66,244.49a4.76,4.76,0,0,0,3,4.77c3.37,1.42,3.88,2.1,2.47,3.85s-21.93,11.08-21.93,11.08a51.15,51.15,0,0,0,12.37,1.53c7.21,0.06,15.5-3.05,19-4.11s4.06-.94,6.51.13,11.64,5,15.83,4a18.09,18.09,0,0,0,9-4.93c2.57-2.36,4.31-.55,8,0.53s11.54,1.45,14.31-1.51,4.43-4.76,4.43-4.76-30.73-3.26-37.24-7-35.7-3.53-35.7-3.53h0Z" transform="translate(-45.97 -25.64)"/><path class="cls-11" d="M305.31,201.27c-1.26,4-.42,6.2.42,5.78a12.38,12.38,0,0,1,2.41-.72,16.43,16.43,0,0,0-4.2,9.63c-0.63,6.19.79,13.44,1.49,15s6.27,4.07,12.25,3.38,10.52,0.23,11.59-.89,3-3,3.72-9.28,0.21-11.14-1.89-15.88a16.63,16.63,0,0,0-7.87-8.68c-3.34-1.7-16.2-3.86-17.94,1.64h0Z" transform="translate(-45.97 -25.64)"/><path class="cls-8" d="M312.08,325.24c-0.8-.32-1.57-0.61-2.35-0.9v-0.91a24.5,24.5,0,0,1,6.13-3.46,15.51,15.51,0,0,1-2.1,5.07l-1.69.2h0Z" transform="translate(-45.97 -25.64)"/><path class="cls-12" d="M249.12,238.93s-7.31,4.43-6.89,9.65,4,11,9.7,10.3a19.24,19.24,0,0,0,12.1-5.53,105.91,105.91,0,0,0,7.24-7.76s5-.37,6.63,1.52,3.43,2.94,5.84,6,6.67,3.91,10.11,4.88,17.74,1.29,19.64-1.35,2.56-6.9,2.65-7.75,2.65-1.4,2.65-1.4l-0.4,2s7.82,5.44,15,4,10.24-5,9-7.66-6-9.05-10-11-11.94-4.46-16.49-3-6.35,1.84-6.35,1.84a39.28,39.28,0,0,1-6.82-2.52c-4-1.86-7-1.29-11.28-.95s-6.92,2.12-10,2.29-3.41-.41-6.82-1.29-8.35-.13-12.36.21a24.06,24.06,0,0,0-9.41,3.1c-1.43.89-3.83,4.43-3.83,4.43h0Z" transform="translate(-45.97 -25.64)"/><path class="cls-13" d="M271.72,245.57c1.27,0,4.81,0,6.17,1.54,1.67,1.89,3.43,2.94,5.84,6s6.67,3.91,10.11,4.88,17.74,1.29,19.64-1.35,2.56-6.9,2.65-7.75v0a36.66,36.66,0,0,0-3.29-5.23s-2,8.65-7.87,10.33-9.07-.72-15.39-2.46-6.86-9.61-6.86-9.61a12.75,12.75,0,0,1-5.62,1.25c-3.24,0-.66-6.18-0.66-6.18a2.78,2.78,0,0,0-2.74.75,7.93,7.93,0,0,0-2.48,5.66,6.58,6.58,0,0,0,.48,2.21h0Z" transform="translate(-45.97 -25.64)"/><path class="cls-14" d="M323.47,318a3.87,3.87,0,0,1,.23-0.43c1.14,0,1.14,0,1.3.18-0.52.07-1,.16-1.53,0.25h0Z" transform="translate(-45.97 -25.64)"/><path class="cls-15" d="M367.44,284.22c0.16-1.65.16-1.65,1.44-6.46a154.61,154.61,0,0,0,.16-18.09c1-.64,1.94-1.27,2.92-1.89,2.85-5,5.38-10.28,5.95-16.29,0.23,0.07.46,0.15,0.68,0.24,0.07,0.36.16,0.72,0.25,1.1h0.64c1,7.34-1.16,13.06-5.85,18.54-0.14.45-.27,0.91-0.41,1.38a6.17,6.17,0,0,0-.71.26c0.36,3.2,2.41,1.26,4.44.87,0.39,0.41.39,0.41,0.48,1.49-1.41,1.59-2.23,3.21-4.28,3.62-0.34,1-1.73.42-2.46,1.56,0.46,1.1,1.18,1.42,1.53,2.43h0.61a12.25,12.25,0,0,1,.8,3.83c-0.25.24-.5,0.47-0.73,0.71-0.61-.36-1.21-0.73-1.8-1.07-0.3.12-.59,0.26-0.89,0.4a13.51,13.51,0,0,1-.84,6.71c-0.64.21-1.28,0.42-1.91,0.65h0Z" transform="translate(-45.97 -25.64)"/><path class="cls-15" d="M201.65,279.85c-1.07-3.62-.93-5.74.82-9.43,1.62-.66,1.91-2.8,2.26-4.4-3,.14-5.22,3.71-8.13,2.85-0.14-2.41.89-4.27,0.59-6.49-1.3,0-2.6,0-3.9-.06-2.28-3-1.62-5.51,2-6.17,0.09-.26.18-0.5,0.27-0.74-1-1.92-2.39-2.53-3.44-4.43-3-1.29-2.53-8.65-2.44-11.37l1.37-.13c0.52,1.27,1.71,1.57,3,1.72-1.57-5-7.4-21.47-.52-25,1.32,1.13,2.62,2.87,4.33,3.14-0.25-3.75-.68-6.94.73-10.51h0.61c0.5,1.29,1.09,1.94,1.73,3.29,0.59,2.27,1.18,4.55,1.78,6.85,0.48-.09,1-0.16,1.48-0.23,1.91-6.48,2.64-14,6.38-19.66,0.3-.19.59-0.38,0.89-0.54,0.3-2.29,7.54-5.36,9.82-6.23a3.91,3.91,0,0,1,.09-0.55c2.89-1.62,9.09-5.78,12.19-5.27-2.6,5.47-2.6,5.47-3.21,6-2.48,8.1-4.78,15.64-6.95,23.84-0.55,3.65-1.07,7.3-1.59,11,0,3.51.11,7.05,0.18,10.59h-0.61c-1-3.31-3.14-6.38-4.21-9.59l-0.55-.08c-2.46-4.18-4.31-4.19-8.84-4.23-5.4,3.23-6.1,6.93-7.15,13.08,0.09,3.94.2,7.91,0.32,11.88,1.12,5.48,2.46,15,7.79,17.87,3,0,4.87-.6,6.47-3.41,0,1.1-.3,1.29-2.57,13-0.3.26-.57,0.54-0.84,0.83-0.14-2.06.34-4.13,0-6.12l-1.16-.08c-0.8,2.91-4.12,7.33-6.67,8.64-0.75,0-1.5.11-2.26,0.17h0Z" transform="translate(-45.97 -25.64)"/><path class="cls-2" d="M296.57,277.65c-6.08-1.17-10.73-2.34-16.13-5.44v-0.67c-0.64-.41-1.28-0.8-1.91-1.19-3.1.86-6.36,2.55-9.57,1.5,0-.26,0-0.5-0.07-0.74,2-1.44,4.44-1.87,6.79-2.6v-0.67l1.91-.63c0.66-2.29,3.62-2.34,4.33-4.38a4.34,4.34,0,0,1,2.62-1.22c0.2,2.68-2.19,3.85-2,6a1.83,1.83,0,0,1,1.28,1.35l7.36,4.15c8.2,2.48,16.38-.68,23.42-5.13,1.59-1.66.57-2.41,0.32-4.47,0.41-.07.82-0.11,1.25-0.16a7.52,7.52,0,0,0,2.44,2.41c0,0.24,0,.5-0.07.76,1.57,1.78,1.69,2.19,4,2.35v0.67a13.83,13.83,0,0,1-5.06-.38c-0.09-.22-0.18-0.41-0.25-0.6-2.28,1.41-2.28,1.41-6.08,4.7a41.11,41.11,0,0,1-14.56,4.35h0Z" transform="translate(-45.97 -25.64)"/><path class="cls-11" d="M252.35,230.12s2.72-.28,2.72-4.13-0.11-18.44,3.61-23.5a22,22,0,0,1,14.23-8.14c3.84-.31,10.05.54,12.54,4.52s3.49,8,1.69,6-3.16-.93-3.16-0.93a16.05,16.05,0,0,1,3.73,8.63c0.79,5.66-2.78,19.08-2.78,19.08s-11.59-1.25-17.08-.75-8,2.53-10.36,1.56-5.15-2.34-5.15-2.34h0Z" transform="translate(-45.97 -25.64)"/><path class="cls-2" d="M256.07,265c-7.13-1.78-14.94-5.69-11.23-14.69,3-3.87,3.8-3.5,8.38-3.25,0.89,2.42-.46,7.28-3.55,6.68V252.6c0.46-.38.93-0.76,1.41-1.14,0-.69,0-1.39.09-2.08-0.14-.14-0.27-0.29-0.41-0.41a22.58,22.58,0,0,0-3.23.71c-2.12,4.07-2.48,4.85-.48,9,8.43,6.38,23.62-2.74,30.93-7.29,0.36-3.82-4.21-4.58-6.72-5.1v-0.67c-0.46-.1-0.91-0.2-1.37-0.27-1.84-5.46,2-8.8,5.79-12.14-7-3-13.44-1.16-20.23,1.31v0.67a18.1,18.1,0,0,0-6.33,3.77c-0.36-.05-0.71-0.08-1-0.1L248,237.75a2.34,2.34,0,0,0,.8-1.64,3.27,3.27,0,0,0,1.89-2c1.41-.18,2.37-1.27,3.49-2.15l-2.85,0c-2.53,1.32-2.53,1.32-3.49,1.48,1.41-3.81,5.54-3.44,8.86-3.58v0.67h0.64c-0.48-9.54-.73-15.59,3.94-24.2a32.08,32.08,0,0,0,3.64-4.63c1-.47,2.53-1.79,5.38-3.42,5.47-1.53,12.51-2.57,15.35,4.09-0.11.17-.23,0.33-0.32,0.5l-1.73-1v-0.65a9.67,9.67,0,0,0-4.12-1.37l0.48,1c2.53,1.91,3.64,4.86,5.06,7.66,1.5,7.32,1.5,14.56-1,21.57l0.07,1.08,0.8,0.48c0,0.24,0,.5.09,0.77l-1,1.07c-4.83,1.58-11.5,4.16-11.25,10.52,2.14,1.43,4,1,6.42,1.65,1.37,3.33,3.42,4.76,6,7.17,7,2.71,9.5,3.4,10.75,4.08l7.45,1.07c10.43-.44,11.53-4.37,9.48-14.35a20.05,20.05,0,0,0-2.78-5.28c-3.64-5.43-7.95-6.66-13.92-7.74-0.09-.48-0.16-1-0.23-1.41,1.89,0.06,3.78.13,5.69,0.21,1,0.68,1,.68,4.76,1.88-2.32-10.58-1.07-21.2,6.95-28.33-2.41,0-4.37,1.09-6.42,2.34,0-.86,0-1.72.09-2.56,1.28-.49,1.91-1.13,4.44-2.45a31.79,31.79,0,0,1,8.86.74c7.15,4.84,8.11,7.31,10.91,16.17,0.59,5.31-.46,9.72-1.44,14.92,2.92,1.22,5.24,2.48,6.33,5.72-1.91-.78-3-1.91-5.06-2.38v-0.65c-6.15-2.37-14-4.06-19.86,0,2.14,4.06,6.13,4.81,9,8.49,0.25,2.51.36,4.52-1.75,6.13,5.31,4.39,16.15,5.08,22.16,2.5,0.77-1.5.77-1.5,0.77-2.14-2.12-1.88-4.81-2.86-7.52-1.83a7.28,7.28,0,0,0-.23.76,10.76,10.76,0,0,0,4.44.54l0.62,0.65c-1.59,1.78-4.92,1.27-6.72-.13-0.14-.69-0.27-1.39-0.39-2.08,1.94-2.9,5.79-2.7,8.7-1.41,1.89,1.66,1.89,1.66,2.53,1.84,0.89,2.37,1.39,6.85-1.59,7.94a7,7,0,0,0-.23.74c-2,.75-2.92,1.41-6.72,2.69-5.42.91-10.59,0-15.83-1.11a10.24,10.24,0,0,0-4.1.44v1c-7.43,1.61-14.33,1.6-21.53-1-3.67-.68-6.1-0.22-9.79.42V260c-9.16,2-17.45,4.85-26.9,5.08h0Z" transform="translate(-45.97 -25.64)"/><path class="cls-15" d="M259.55,263.41v-0.67c7.4-1.23,14.15-6.93,21.23-9.33,1.34,0.42,1.34.42,5.35,2.74-18.38,5.2-18.38,5.2-19.59,5.79-5.69,1-5.69,1-7,1.47h0Z" transform="translate(-45.97 -25.64)"/><path class="cls-15" d="M329.49,258c-3.05-1.12-6.06-.91-9.18-1.58a9.74,9.74,0,0,0-3.17-1.17c0.21-1,.41-2,0.64-3,1.57,0.49,1.89.83,10.75,3.24,3.05,0.12,6.1.24,9.18,0.39-2.64,1.75-5.08,2-8.22,2.11h0Z" transform="translate(-45.97 -25.64)"/><path class="cls-12" d="M317.14,247.29c-0.62-1.58-1.21-3.14-1.8-4.7a4.79,4.79,0,0,1,.23-0.5c2.1,1.43,2.39,2,2.32,4.66-0.25.17-.5,0.35-0.75,0.54h0Z" transform="translate(-45.97 -25.64)"/><path class="cls-15" d="M365.86,239.07q-1.67-7.51-3.33-15-6.36-16.9-12.67-33.8a3.4,3.4,0,0,1,.32-0.48c0.16,0.31.32,0.65,0.48,1,2.3-.24,4.37,1.52,6.4,2.61,0.07,0.24.16,0.5,0.25,0.77,2.19,0.35,3.74,2.85,4.65,4.77,0.23,0.07.48,0.17,0.73,0.27,1,4.67,2.26,9.17,2.53,14,2.64-1.36,2.57-4.71,3.8-7.28h0.61a25.22,25.22,0,0,1-.46,11.3c0,1.31-.39,2.29,1.09,2.49,6-8.41,6.33,4.38,5.06,8.84-1,.25-1.91.51-2.85,0.79-3.21,2.53-2.48,1.13-5.69,1.46-0.32,2.75-.64,5.51-0.93,8.28h0Z" transform="translate(-45.97 -25.64)"/><path class="cls-14" d="M280.44,231.4c-0.43-.24-0.87-0.46-1.28-0.68,0.14-1.38.14-1.38,1.46-5.79,0-5.09-.3-11-5.26-13.31-5.72-.48-8-0.54-11.87,4.39-2.26,5.29-2.19,7.8-.77,13.23-0.89,0-1.78.06-2.67,0.1-1.8-8.19-.87-14.51,3-21.67,0.89-.09,1.3-1.35,1.75-2.11,6.9-5.89,12.35-4.7,17.84,2.39,1.82,6.08,2.44,13.07.48,19.17,0,3-.11,3.15-2.67,4.28h0Z" transform="translate(-45.97 -25.64)"/><path class="cls-14" d="M309.85,231.65c-0.48-.65-0.48-0.65-1.44-3.31-0.3-11.11-1-21.44,11.28-24,10.48,3.86,10.25,16.81,8,26.26-0.75.66-1.66,0.25-2.46,0,0-1.51.59-4.49,0.59-6.4-1.37-6-4.76-14.45-12-9.11-0.18.33-.34,0.67-0.5,1l-0.57.07c0,0.19,0,.38-0.07.6-4.1,2.26-3.08,10.18-1.71,13.94a1.29,1.29,0,0,1-1.14,1h0Z" transform="translate(-45.97 -25.64)"/><path class="cls-15" d="M330.74,195.31l-1.28-2.14-1.44.13c-0.11.24-.23,0.5-0.34,0.76h-0.87c-3.28-4.5-6.67-7.65-12.51-7.7-1.71.37-3.39,0.74-5.08,1.13,0.73-2.22,1.32-5.72,3.69-6.68,2.73-4.28,10.59-5.93,13.46-.89a4.37,4.37,0,0,1,.55.1c0.84,2.78,2,5.2,3,7.93,1,7.06,1,7.06.82,7.37h0Z" transform="translate(-45.97 -25.64)"/><path class="cls-15" d="M251,193c-0.82-12.22,7.72-21.85,16.63-28.2,1.41-.13,2.85-0.24,4.28-0.35,4,1.13,5.88,4.28,7.95,7.78a5.61,5.61,0,0,1,.57.1c1.89,3.6,4,7.9,3.9,12.1-0.27,0-.52,0-0.77,0-9.29-6.22-17.22-2.34-24.94,4.45-1.12,0-1.16-.15-1.94-1-0.32.09-.64,0.21-1,0.33-0.48,1.43-3.37,4.23-4.72,4.74h0Z" transform="translate(-45.97 -25.64)"/><path class="cls-9" d="M221.58,188.09c-0.8-3.57-1.59-7.11-2.37-10.65-3.21-8.87-7.47-21.16-13.92-28-0.07-.24-0.11-0.46-0.16-0.67H204.5c-1.09-2-3.62-5-3.78-5.67h-0.64v-0.67c-0.25-.1-0.5-0.2-0.73-0.27,0-.26,0-0.5-0.07-0.74,2.26-2.63,4.72-4.88,6.67-7.71,2.26,0,6.15,2,8.15,3.05,0.18,0.19.36,0.41,0.55,0.63,31.3,12.23,70.07,5.87,100.23-6.81,0.36,0,.73,0,1.09.06,6.33,4.52,13.83,7.36,20.93,10.14,4.56,0.52,8.86,1.39,13.44,1.59a159.68,159.68,0,0,0-3,30.18l1.78,14.93c-6.49-1.58-13.1-4.39-19.43-7-0.64-.82-1.09-1.92-2.1-2.14a4.94,4.94,0,0,1-.09-0.57c-4.78-3.22-8.34-4.44-13.64-1.21-4.53.32-9.59-.7-14.15-1-4.69-1.4-10-.94-14.87-1.1-1.59-.85-2.62-3.8-3.53-5.43a17.43,17.43,0,0,1-5.69-6.67c-0.27,0-.55.07-0.82,0.11-9-4.81-17.18,7.36-21.75,14a29.4,29.4,0,0,1-7.4,1.66c-8,3.59-16.36,5.53-24,9.91h0Z" transform="translate(-45.97 -25.64)"/><path class="cls-9" d="M158.32,170.65c-9.13-.53-18.34-0.42-24.53-8.52-4.42-9.5-2.82-18.14.32-27.86a80.73,80.73,0,0,1,5.06-10.59c2.14-2.75,7-11.82,10.62-13.17,0.43-1.53,2.55-2.42,3.78-3.29,0.71-1.5.77-1.71,2.23-2.3,1.09-3.86,11.64-7.45,14.85-8.69,2.66-.46,5.33-0.91,8-1.34q2.56-8,5.15-16c1.41-2.76,2.82-5.52,4.26-8.26h0.64c0.3-2.2,3.17-4.35,4.58-5.94a15.92,15.92,0,0,1,5.54-6.26c0.91-1.24,1.73-3.12,3.17-3.63V54.19h0.64V53.52c1.14-.61,1.8-0.75,2.37-2,9.59-8,21-13,32.44-17.51l12.35-3.19c1.89,0,1.89,0,12-1.57q9.64-.1,19.32-0.17A139.68,139.68,0,0,1,303.22,33c6.45,2.9,12.82,6.1,18.34,10.76,2.32,3.36,6.45,5.48,7.61,9.53h0.93a31.27,31.27,0,0,0,3.64,5.67q3.79,7.81,7.59,15.67l3.49,14.29c0,13.24-4.49,21.37-14.08,29.58l-1.25.49v0.67l-1.59.49c-8.38,6.31-21.28,13.47-31.64,14.67a154,154,0,0,1-64.53,4.1c-6.24-1.58-12.28-3.3-18.36-5.46a57.6,57.6,0,0,1-7.74-5.7c-3.51,1.6-3.49,7.16-6.81,8.4-0.64,2.22-5.42,5.81-7.59,6.91-0.39,1.38-2.64,2.13-3.8,2.79a75.05,75.05,0,0,1-9.25,6.64c-0.09.45-.16,0.93-0.23,1.41,6.4-1.91,11.32-5.71,17.08-9,3.6,0,9.5,10.07,10.91,11.87,0,0.36-.07.72-0.09,1.07-8.75,6.45-21.82,9.14-32,11.44a143.55,143.55,0,0,1-15.49,1.38h0Z" transform="translate(-45.97 -25.64)"/><path class="cls-9" d="M364.91,161.4c-3.39-.58-10.87-0.71-13.37-3.36,0.87-12.82,1.18-13.32,1.09-15.43,3.9-.68,5.63-0.67,13.55-1.94l10.5-3c0.07-.36.16-0.72,0.25-1-2.53.12-5.06,0.77-19.93,3l-7.9-.07c-4.31-1-8.68-1.84-13-2.76-4.87-2-13.08-4.17-16.13-8.59,5.22-2.68,9.45-6.71,14.56-9.17,0.82-2.86,5.83-4.16,6.63-7.57,1.16-.25,1.69-1.52,1.91-2.64h0.64c1-2.09,2-4.19,3-6.28,0.41-2.05.84-4.1,1.28-6.13C348,79.78,344,67.75,334.7,54c0-.38,0-0.74.07-1.1,10.46-4.76,23-4.52,34.26-4.42,16.67,1.91,45.72,9.51,48.86,30.11,2.46,1.45,6.7,1.9,7.77,5,1.85,0.59,2.85,4.16,3.17,6h0.62c0.36,6.69-2.14,12.84-4.58,18.89-5.22,8.87-11.28,14.91-19.45,20.91-0.32,0-.64.09-1,0.16v0.67c-3.12,1.58-6.26,3.46-9.79,3.89,0.64,3.61,2.57,7.07,3.62,10.66,0,10.13-8.11,12.84-16.29,14.3-3.92,2-13.1,2-17.08,2.34h0Z" transform="translate(-45.97 -25.64)"/><path class="cls-16" d="M178.64,94.88c1.72-5.35,3.42-10.65,5.16-16,1.4-2.76,2.81-5.52,4.26-8.25h0.63c0.29-2.2,3.17-4.35,4.57-5.93a16,16,0,0,1,5.54-6.27c0.91-1.24,1.73-3.12,3.16-3.63V54.19h0.64V53.53c1.14-.62,1.79-0.76,2.36-2,9.59-8,21.05-13,32.45-17.5,4.09-1.08,8.21-2.15,12.35-3.21,1.88,0,1.88,0,12-1.56,6.42-.07,12.87-0.14,19.32-0.18A139.18,139.18,0,0,1,303.22,33c2.83,1.27,5.64,2.6,8.37,4.09,8.9,7.43,17.87,18.17,18.68,29.38,1.42,19.8-1.93,21.44-19.68,35.06s-49,16.6-77.58,16.76-31.26-7.14-31.26-7.14-5.4,14.13-15.83,24.16-20.07,13.6-32.42,15.12-13.12-8.61-10-23.57,35.18-31.94,35.18-31.94h0Z" transform="translate(-45.97 -25.64)"/><path class="cls-16" d="M334.74,53.41c0-.18,0-0.37,0-0.55,10.45-4.77,23-4.53,34.26-4.43,16.67,1.91,45.71,9.52,48.86,30.11a11.1,11.1,0,0,0,1.38.68c2,1.28,5.73,4.73,6.55,13.34,1.15,12.07-6.51,20.44-11.3,24.82s-16.09,10.92-25.09,9.84-7.09-4.28-7.09-4.28,9.58-2.93,14-6.11,8.15-10.94,8.15-10.94-3.4,5.91-14.73,11-18.5,3.81-31.72,2.51-10.57-5.63-10.57-5.63,7.17-14.6,6-30.06-18.76-30.25-18.76-30.25h0Z" transform="translate(-45.97 -25.64)"/><path class="cls-16" d="M390.6,135.88s-7.85,5.42-16.22,7.14-15.43,5.08-9.68,8.7,17.92,5.09,23.54,2.53,5.62-4.75,6-9.69-3.66-8.67-3.66-8.67h0Z" transform="translate(-45.97 -25.64)"/><path class="cls-16" d="M325.3,176.41c-2.47-1.4-4.72-2.07-7.24-1.59a87,87,0,0,0-9.17-1.22c-7.94-.66-21.55-1-22.85-2.66s-4.76-1.86,5.87-2,41.47-1.29,41.47-1.29-34.78-3.33-55.36-1.48h0a15.26,15.26,0,0,1-2.43-3.71,7.7,7.7,0,0,0-.83.1c-6.16-3.28-11.89,1.32-16.37,6.69-2.57.81-4,1.61-6.84,2.39-6.32,1.75-4.9.66-7.36-5.91s-10.7-19.5-10.7-19.5,14.27,1.29,42.81-.34,36.56-11.39,36.56-11.39,5.8,8.47,14.71,10.88,17.84-.32,17.84-0.32-2.66,19.49-3.39,21.52-4.62,1.58-4.62,1.58a34.8,34.8,0,0,1,4.46,1.4c1.86,0.78,1.62,8.1.73,10s-2.51.58-11.75-1.72l-5.55-1.37h0Z" transform="translate(-45.97 -25.64)"/><path class="cls-9" d="M260.31,229.33h-0.26c-1.8-8.19-.87-14.5,3-21.67,0.89-.09,1.3-1.35,1.75-2.11,6.9-5.89,12.35-4.71,17.83,2.4,1.83,6.08,2.44,13.06.49,19.17,0,2.86-.1,3.13-2.38,4.15a10.79,10.79,0,0,1,.53-1.51c1.28-2.94,2.07-7.37,1.77-13s-2.17-9.47-5.32-11.08-8.27-1.15-13.5,3.43c-4.47,3.93-4.1,16.62-3.9,20.2h0Z" transform="translate(-45.97 -25.64)"/><path class="cls-9" d="M309,230c-0.15-.4-0.35-0.94-0.62-1.7-0.3-11.12-1-21.44,11.27-24,10.49,3.85,10.25,16.81,8,26.24l-0.05,0c0-1.22.09-3.33,0.14-6.82,0.09-6.78.1-6.6-1.62-10.79s-2.74-4.8-5.58-5.43-5.58.87-8.83,3.89S309,230,309,230h0Z" transform="translate(-45.97 -25.64)"/><path class="cls-17" d="M268.25,215.71a8,8,0,0,1,4.1-.94c1.82,0.28,3.25,1.07,4.36,3.62a11,11,0,0,1,.39,7.88,23.41,23.41,0,0,1-1.43,3.5,51.44,51.44,0,0,0-6.7-.64c-1.76.12-3.58,0-3.58,0s-1-1.44-.78-5,1.3-4.94,1.3-4.94-0.59,5.21,2.15,5,6.5-2.23,5.59-4.71-5.4-3.82-5.4-3.82h0Z" transform="translate(-45.97 -25.64)"/><path class="cls-17" d="M313.17,221.33a9.6,9.6,0,0,0-.39,4.14c0.31,2.19.78,5,.78,5a14,14,0,0,0,3.05-.21,35.14,35.14,0,0,1,5.87,0s0.23-3,.23-5.32-0.31-4.62-2-6.35-4.93-.43-4.93-0.43,2.74-.06,3.36,2.14,0.86,5.8-2,5.38-4-4.41-4-4.41h0Z" transform="translate(-45.97 -25.64)"/><path class="cls-14" d="M269.44,214.47a3.15,3.15,0,0,1,3.09,3.18,3.09,3.09,0,0,1-3.09,3.12,3.15,3.15,0,0,1-3.09-3.18,3.09,3.09,0,0,1,3.09-3.12h0Z" transform="translate(-45.97 -25.64)"/><path class="cls-14" d="M316.79,216.86a2.89,2.89,0,0,1,2.83,2.91,2.83,2.83,0,0,1-2.83,2.87,2.89,2.89,0,0,1-2.83-2.91,2.83,2.83,0,0,1,2.83-2.87h0Z" transform="translate(-45.97 -25.64)"/><path class="cls-16" d="M142.95,165.24c6.05,1.52,9,2.09,17.8,1.62s23.67-4.21,23.67-4.21-7.7-2.72-9.72-.08-4.22,1.25-6.05,1.05-1.65-1.3-4-.22-5.5,2-6.24.87-1.65-2.4-3.49-1.5-5.32,2.34-6.05,1.23,0.37-3.67-2-3.32-5.32,1.06-5.14-1.14,0.55-2.75-1.65-2.58-3.3-.39-3.3-2.6-3.12-6.26-3.12-6.26c0.21,6.25,1.93,15.28,9.36,17.14h0Z" transform="translate(-45.97 -25.64)"/><path class="cls-16" d="M341.18,92s-1.83,9.85-5.84,15.29-11.69,10.49-20.82,16.26-19.72,9-33.24,10.68-25.2,1.25-34.7.81-11.19-1-11.19-1a44.86,44.86,0,0,1,7.49-1.69c4.3-.6,4.78.36,8.6,0.55s5.1-.91,6.37-1.86,4.3,0.19,5.73.84,4.46,1.31,5.58-.27,4.94-4.26,7-2.81,6.21,3.4,7.65,1,1.27-5.88,4-4.27,7.49,3.57,8.92,1.35,0.16-6.53,3.19-6.35,6.69,3.72,8.12.55,1.43-6.68,5.1-6.49,7.33,0.7,8.76-2.16,0.16-5.73,2.87-6,5.58,0.84,6.85-3.13,0.32-6.69,2.55-9.54,5.58-5.85,6.53-4.72a3.8,3.8,0,0,1,.5,3h0Z" transform="translate(-45.97 -25.64)"/><path class="cls-16" d="M330,130.36s10.91,4.74,18.07,5.16a66.63,66.63,0,0,0,18.07-1.28c6.62-1.2,8.59-2.61,8.59-2.61s-8.23-1.14-10-.44-3.58,3.73-5.19,2.1-1.43-4.18-4.29-2.18-5.19,2.82-7,.48,0.36-3.57-2.68-2.71-5.55,1.92-5.9-.41-0.36-4.12-3-3.07-6.62,5-6.62,5h0Z" transform="translate(-45.97 -25.64)"/><path class="cls-16" d="M203.1,142.2s7,6.87,10.55,13.49,10.11,27.12,10.11,27.12a70.16,70.16,0,0,1,6.59-2.8c3.08-1.07,6.81-4.56,2.2-4.6s-7.69.38-7.47-2,4.18-5,2-6.58-5.93-.93-5.49-3.34,4.18-5.68,1.32-6.14-6.81.82-5.71-2,5.93-4.79,1.54-5.7-6.37.17-6.15-2.47,2.2-3.28-1.1-4.84-8.35-.07-8.35-0.07h0Z" transform="translate(-45.97 -25.64)"/><path class="cls-12" d="M249.64,232.84s-5.9,1.69-7.08,4.35-1.54,3.9.12,3.56,5.78-4.16,6.66-4.94,3.82-2.27,4.88-3.15,2.9-.87.95-1.18-2.49-.79-3.55-0.21a9.1,9.1,0,0,0-2,1.56h0Z" transform="translate(-45.97 -25.64)"/><path class="cls-12" d="M329.78,232.12s0.79-1.27,3.47-.13,3.59,0.41,4.77,2.88,1.58,3.79.14,2.86a54.33,54.33,0,0,1-5.43-3.59,15.59,15.59,0,0,0-3-2h0Z" transform="translate(-45.97 -25.64)"/><path class="cls-2" d="M337.39,234.86a17.33,17.33,0,0,0-4.87-2.6c-0.07-.38-0.14-0.74-0.18-1.1,2.94-1.17,4.51,1.11,5.69,3.7h-0.64Z" transform="translate(-45.97 -25.64)"/><path class="cls-16" d="M252.38,321.12s-11.88,4.27-15,7.82-4.3,6.45-2.48,6,5.32-5.79,7.36-7.44,6.41-3.59,8.09-4.67a6.41,6.41,0,0,0,2-1.73h0Z" transform="translate(-45.97 -25.64)"/><path class="cls-16" d="M255.52,325.08s-13,5.28-16,10.07-1.46,7.49-.36,6.92,9.4-10,9.4-10-3.86,8.2-2.48,9.82,2.4,2.35,2.77.31,0.8-6.55,2.48-9.89,4.15-7.25,4.15-7.25h0Z" transform="translate(-45.97 -25.64)"/><path class="cls-16" d="M261.71,325.79s-8.09,14.14-7.14,15.9,3.21,1.27,3.79-1.06S262,330.23,262,330.23s-2,6.91-1.31,9,1.46,0.23,1.82-2.9,1.38-4.73,1.53-6.62-0.22-3.21-.95-2a5.45,5.45,0,0,1-.87,1.3s1.09-2.47.29-2.84l-0.8-.37h0Z" transform="translate(-45.97 -25.64)"/><path class="cls-16" d="M321.33,327.62s7.76,1,9.17,5.49-1.18,9.77.94,10.25,10.58,2,11.87-1.9-1.06-9.31-1.06-9.31-0.12,5.89-3.29,6.1-3.88-2.86-4.47-2-2-.34-2-0.34a5.22,5.22,0,0,0,.57-3.91c-0.59-2.12-.12-1.89-4-3.33a18.82,18.82,0,0,0-7.76-1h0Z" transform="translate(-45.97 -25.64)"/><path class="cls-16" d="M332.26,323.59s10.93,2.92,12.81,7.41,1.06,9.55,3.17,8.51a5,5,0,0,0,1.53-7.17,19.09,19.09,0,0,0-7.41-6.42c-2.59-1.08-10.11-2.32-10.11-2.32h0Z" transform="translate(-45.97 -25.64)"/><path class="cls-10" d="M288,282.88s-2.92-3.14-4-2.3-2.18,5.92,2.18,11.17,12.25,6.29,15.89,3.41,5.32-4,5.82-7.83,0.78-6.19.78-6.19-5.86,7.4-9.87,6S288,282.88,288,282.88h0Z" transform="translate(-45.97 -25.64)"/><path class="cls-2" d="M295.61,289.59c-3.21-1.25-7.18-2.55-7.59-6.71,2.44,0.55,4.37,2.07,6.77,2.85,4.69-.49,9.39-0.57,11.59-5.69,0.27,0,.55-0.07.84-0.09l0.41-1.22h1c0.14,3,.14,3-0.21,4.75-1.37,1.49-2.71,3-4.05,4.48a35.8,35.8,0,0,1-8.72,1.6h0Z" transform="translate(-45.97 -25.64)"/><path class="cls-18" d="M285.18,325.35a64.55,64.55,0,0,1-9.79-2.56c-5.7-2.7-5.7-2.7-7-3.05-1.1-.82-1.85-1.63-3.17-1.84v-0.67c-3.07-.85-8.16-5.11-9.18-8.36h-0.61c-1.46-2.47-2.89-4.92-4.33-7.37a4.57,4.57,0,0,1-2.18-1.9c-1.88,3.54,4.51,8.66,5.31,11.82,0.18,0,.37.05,0.58,0.1a1.2,1.2,0,0,1-.06,1.17c-3.31-.71-6.61-1.44-9.91-2.13l-12.55-5.39c-4.38-3.45-13.44-8.67-15.24-14.79l-0.55-.09c-2.16-7.5-.61-16,1.43-23.28,0.06-.57.22-1.47,0.38-2.52-0.06,7.82.48,19.83,4.15,24,5.62,6.42,24,15.94,24,15.94s0.75-6,1.12-10.86,3.2,6.66,8.1,10.84,19.15,13.49,30,13.28,13.49,0.88,24.82-4.85,19.46-10,24.06-12.82,6.59-4.39,6-3.17-3.68,6.56-.61,5.2,15.28-8.25,19.57-17.93,4.48-11.54,6.1-21.86a53.81,53.81,0,0,0,0-16.31c1,2,.3,3.94,1.67,6,1.32-2,1.41-5.41,2.09-7.84l0.73,0.19c0.09,1.09.25,2.57,1.62,2.44a19.84,19.84,0,0,0-.27-5.41c0.56-.69,1.13-1.38,1.73-2.06,0.12,1.23.12,1.23-.33,4.32,0.35-.05.71-0.12,1.07-0.14,0.78-1.63,2.57-10-1.35-8.53-0.7,1.07-3.18,6.18-4.49,6.51,0.23-5.37,1.39-9.93,7.4-9.59,2.9,4.06-1.63,15.62-3.14,19.62-1.29,2.41-2.18,3.26-2.57,4.06l-1,.21c-0.45-1.49-.45-2.06-1.84-2.29-0.22,4,.09,7.88.07,11.91-1.25,11-1.25,11-2.24,16-0.25.19-.46,1.41-3.46,6.52-1,3.31-2.29,6.27-5.12,8a25.28,25.28,0,0,1-11.71,9.54c0,0.19,0,.37-0.07.59-4.9,2.15-9.54,4.91-14.44,7-7.08,1.69-7.26,2-9.26,2.48,0.27-1.62,2.43-2.92,3.56-4,2.31-1.77,8.94-5.6,10.81-8.72-0.24-.22-0.5-0.44-0.75-0.64-2.21,1.62-8.59,3.45-9.2,6.41-0.61.24-1.22,0.47-1.82,0.72-0.09.22-.18,0.46-0.28,0.7a124.16,124.16,0,0,1-16.76,10.82c-3.9,1.3-6.75,2.62-11.17,3.91a73.09,73.09,0,0,1-9.84.77h0Zm-66.61-68a2.42,2.42,0,0,0-.9-1.42c-0.72,2.1-3.94,5-5.53,6.92-4.67,1.9-5.59-2.65-7.46-6.39-1.05-4.43-3.1-15.82-1-23.07,2.33,1.93,1.64-1.09,4.72-.69s7.73,9.9,8.85,15.54,2.73,2.11,2.73,2.11l-1.45,7h0Z" transform="translate(-45.97 -25.64)"/><path class="cls-2" d="M210.19,255a4,4,0,0,0-1.57-1.33c-0.75-6.1-.18-9.73,1.71-15.4-0.36-.46-0.73-0.89-1.09-1.32H208c-1.41,2.14-1.41,2.14-1.75,3.21l-1.39.2c-0.18-.46-0.36-0.91-0.52-1.37,1.59-3.28,3.37-9.15,7.29-5,1.85,5.54,3.85,10.69,4.44,16.62a3.72,3.72,0,0,1-.14,2.79H215a49.34,49.34,0,0,0-2.73-8.34c-2.76-.91-1.57,8.57-1.59,9.74l-0.43.21h0Z" transform="translate(-45.97 -25.64)"/><path class="cls-8" d="M205.54,244c-0.53.65-1.31,2.42-.46,6.58s2,9.36,2.3,7.39-1.18-4.68-1-7.91,0.59-4.47.33-5.26a1.29,1.29,0,0,0-1.18-.8h0Z" transform="translate(-45.97 -25.64)"/><path class="cls-8" d="M211.91,253.5c-0.53,1.9-3,3.79-2.1,5.38s4.47,1,4.66-1.41a6.91,6.91,0,0,0-1.31-5.21c-0.92-1-1.25,1.24-1.25,1.24h0Z" transform="translate(-45.97 -25.64)"/><path class="cls-8" d="M372.42,233.25s-2.45,1.54-2.76,3-0.57,2.71.21,1.62a35.48,35.48,0,0,0,2.19-3.89l0.36-.73h0Z" transform="translate(-45.97 -25.64)"/><path class="cls-8" d="M370,248c-0.68,2.5-1.77,5-.42,4.32s2.92-2.53,2.35-3.53A2,2,0,0,0,370,248h0Z" transform="translate(-45.97 -25.64)"/><path class="cls-11" d="M224.37,232q1.18-9.5,2.4-19,2.57-8.22,5.13-16.4c1.25-2.64,3.62-8.8,6.29-9.82,3.17-5,7.35-4.75,12.84-6.15-1.23,4.23-3.05,8.49-2.25,13-1.45-3.25.89-8.54,1.37-10.14,0.57-1.89-4.47,2-11.75,9.61s-14,38.62-14,38.88h0ZM250,195.19c1.78,0.41,3.88-2.09,5-3l1.67,0.3c8.86-5.26,8.86-5.26,12.57-7.15,6.07-1.85,9.3-.42,14.28,1.71a15.51,15.51,0,0,0-9.64,0c-5.43,1.7-6.91,2.18-11.39,6.25s-9,4.59-12.51,1.85h0Zm37.72-10.33a30.25,30.25,0,0,0-1.55-7.17c1.21-.21,1.21-0.21,14.51.88,3.05,0.54,6.12,1.08,9.19,1.64-0.66,1.19-1.61,2.62-2.41,4.14a39.92,39.92,0,0,0-10-2.48c-5.6-.61-7.28.5-8.77,2.17a6.37,6.37,0,0,1-.92.82h0Zm19.74-.51c-1.27,2.42-2.13,5.06-.76,7.23,4.89,2.92,6.85.46,11.24,0.54a10.92,10.92,0,0,1,7,2.57c-0.36-.46-0.69-0.89-1-1.26-5-4-7.15-5.22-13.07-3.28a4.19,4.19,0,0,0-.1.57c-1.5.92-2.27,0.87-4,.86-4.88-2.91.72-7.2,0.76-7.23h0Zm26.18,10c-0.64-3.78-1.76-7.59-1.92-9.63q6.21,2,12.43,4c0.18,0.45.39,0.91,0.6,1.39a4.89,4.89,0,0,1,.57.1c1.25,2.42,2.46,4.8,3.63,7.18-5.44-5-7.49-6.86-10.66-7.63s-3.55,1.65-4.65,4.63h0Z" transform="translate(-45.97 -25.64)"/><path class="cls-19" d="M208.94,341c-2-10.65-2-10.65-2-12,0.46-.51,1.67-1.32,3.89-3h0s-2.64,3.66-1.51,6.62,2.84,4.68,5.33,3.56c2.19-1,6.43-5.11,7-8.37-0.4,6.65-6.41,12.12-12.67,13.16h0Zm12.62-15.19q0,0.35.06,0.7a3.18,3.18,0,0,1-.06-0.7h0Z" transform="translate(-45.97 -25.64)"/><path class="cls-19" d="M195.66,369.74c-1.47-1.54-4.28-.77-5.45-3.21-0.26-.13-0.48-0.26-0.71-0.38,0-1.91,1.81-4.64,2.49-6.45A149.66,149.66,0,0,0,193.77,339a149.72,149.72,0,0,1,.08,15.43c-0.45,6-1.13,9.64,1.36,9.2s4.54-.87,6.36-5.51,3.36-12.75,3.17-16.23A119.39,119.39,0,0,1,205,354.5c-1.12,6.32-2.81,9.7-6.65,14.7-0.89.16-1.79,0.35-2.64,0.54h0Z" transform="translate(-45.97 -25.64)"/><path class="cls-19" d="M182,366.64c-0.28-.49-0.28-0.49-2.65-1.58l-1.94-2.77a30.41,30.41,0,0,1,1-7.35c-0.12-5.88-.3-11.7-0.89-17.45,0,0.07,1.81,9.09,2,13.16s0.45,8.52,1.82,9.21,5,2.2,6.47-1.08,2.64-11.11,3.59-15.3c-0.05,8-.75,17.83-4.91,22a15.23,15.23,0,0,1-4.48,1.17h0Z" transform="translate(-45.97 -25.64)"/><path class="cls-19" d="M169.07,364.21c-6.07-3.78-8.77-10.63-10-17.93,1.6,3.83,3.41,7.66,4.67,8.67,2.72,2.18,4.2,4,6.81,2,2-1.53,3-13.48,3.44-19.19,1.1,8.68,1.63,18-1.34,25.61a6.13,6.13,0,0,1-3.61.85h0Z" transform="translate(-45.97 -25.64)"/><path class="cls-19" d="M156.09,354.82c-5.88-1.93-7.87-8.7-9.66-14.34-0.15-1.1-.36-2.55-0.55-4.16,0,0.1,5.87,14.89,7.79,12.87s2-11.87,2-11.87h0c1.1,5.64,2.95,12.21,1,17.51h-0.63Z" transform="translate(-45.97 -25.64)"/><path class="cls-20" d="M152.05,322c-2-.43-5.49,2.14-5.49,2.14a31.06,31.06,0,0,1,4.49-1.32c1.36-.17,2.72.14,2.18-0.4a1.43,1.43,0,0,0-1.18-.42h0Z" transform="translate(-45.97 -25.64)"/><path class="cls-20" d="M153.12,323.64c-0.83.41-3.54,1.68-4.9,1.67s-1.42-.48-1.42-0.48-0.47,1.24,1.12,1.31,3.42,0.09,4.31-1.2l0.89-1.29h0Z" transform="translate(-45.97 -25.64)"/><path class="cls-20" d="M153.12,325.65s-4.07,1.91-4.49,1.68a6.47,6.47,0,0,0-1.48-.43,2.81,2.81,0,0,0,2.42,1.26c1.42-.22,3.54-2.51,3.54-2.51h0Z" transform="translate(-45.97 -25.64)"/><path class="cls-20" d="M168.2,317.73c-1.24-.66-4.85-0.1-5.74,1.26a24.28,24.28,0,0,0-1.6,3,9.11,9.11,0,0,1,3.14-3,27.32,27.32,0,0,1,4.2-1.21h0Z" transform="translate(-45.97 -25.64)"/><path class="cls-20" d="M168.38,319.27c-2.43.39-5,1.32-5.45,2.09s-0.35,1.66.3,1.07,1.66-1.82,3-2.11a4.55,4.55,0,0,0,2.13-1h0Z" transform="translate(-45.97 -25.64)"/><path class="cls-20" d="M168.67,321c-1.72,1.23-5.15,3.93-6.57,3.5a1.56,1.56,0,0,1-1.36-1.43,0.85,0.85,0,0,0-.06,1.6c1.3,0.9,1.54,1.55,3.31.32a54,54,0,0,0,4.68-4h0Z" transform="translate(-45.97 -25.64)"/><path class="cls-20" d="M175,317.26a5.37,5.37,0,0,1,3.84-1.73c1.14,0.11,5.65,2.49,5.65,2.49a18.43,18.43,0,0,0-4.74-1.26,13.05,13.05,0,0,0-4.74.51h0Z" transform="translate(-45.97 -25.64)"/><path class="cls-20" d="M176,318.51c0.93-.56,2.49-0.71,4.87-0.22s7.67,1.73,5,1.55-7.47-.89-8.35-1a4.26,4.26,0,0,1-1.5-.38h0Z" transform="translate(-45.97 -25.64)"/><path class="cls-20" d="M175.48,319.86c0.36,0.63.83,1.1,3.73,1.8a11.73,11.73,0,0,0,6.27-.73s1.5,1.16-1,1.6-6.48.21-7.52-.69a6.08,6.08,0,0,1-1.5-2h0Z" transform="translate(-45.97 -25.64)"/><path class="cls-20" d="M193.33,324.4a3.78,3.78,0,0,1,3.52-1c1.78,0.58,3.82,2.95,3.82,2.95s-3.08-2-4.51-2.17a8.14,8.14,0,0,0-2.82.19h0Z" transform="translate(-45.97 -25.64)"/><path class="cls-20" d="M193.38,325.75a8.29,8.29,0,0,1,4.78.47c1,0.62,2.65,1.72.09,1s-4.86-1.48-4.86-1.48h0Z" transform="translate(-45.97 -25.64)"/><path class="cls-20" d="M193.64,326.75a4.13,4.13,0,0,0,3,2.07c2.34,0.54,4.43-1.44,4.43-1.44a1.46,1.46,0,0,1-1.17,1.95c-1.74.55-3.56,0.75-4.64-.13a6.38,6.38,0,0,1-1.65-2.45h0Z" transform="translate(-45.97 -25.64)"/><path class="cls-21" d="M261.13,234.57c-2.76.59-10.73,4.35-7.66,5a7.2,7.2,0,0,0,7-2,2.62,2.62,0,0,0,.69-3h0Z" transform="translate(-45.97 -25.64)"/><path class="cls-21" d="M263.35,234.06c-0.61.3-1.46,1.83-.38,1.61s2.53-.67,1.46-1.14l-1.07-.47h0Z" transform="translate(-45.97 -25.64)"/><path class="cls-21" d="M307,239.89s-7-6.53-8.9-5.27,2,6.65,4.27,8,6.3,2.12,6,.6a15,15,0,0,0-1.35-3.37h0Z" transform="translate(-45.97 -25.64)"/><path class="cls-21" d="M324.57,234.56c-2.62-.95-5.14-1-6.39-0.25s2,1.75,4,2,4.25,0.27,3.32-.74l-0.93-1h0Z" transform="translate(-45.97 -25.64)"/><path class="cls-22" d="M296.72,279.8c-1.77-.37-5.41-1.92-6.88-2.13s-1.62.29,0.2,2.08a6.75,6.75,0,0,0,6.57,1.42c1.57-.7.1-1.37,0.1-1.37h0Z" transform="translate(-45.97 -25.64)"/><path class="cls-23" d="M266.86,193.2s4.29-3.43,8.31-3.49,7.94,1.53,6.39,2.24-6.76.13-9.31,0.56-5.39.69-5.39,0.69h0Z" transform="translate(-45.97 -25.64)"/><path class="cls-23" d="M314.7,194.51c0.91-.08,2.83-1,5.75.23s6.76,3.62,4.11,3a107.37,107.37,0,0,0-11-1.55c-2.1-.2-2.19-0.66-1-1.1a8.92,8.92,0,0,1,2.1-.53h0Z" transform="translate(-45.97 -25.64)"/><path class="cls-22" d="M212.71,229.54c-1.34-.22-3.87-0.38-1.76,1s3.8,4.75,5.06,7.79,2.67,5.59,2.25,3.26a40.14,40.14,0,0,0-2.6-8.41,11.81,11.81,0,0,0-3-3.69h0Z" transform="translate(-45.97 -25.64)"/><path class="cls-19" d="M382.31,345.41c-0.53-.33-1-0.67-1.57-1a3.46,3.46,0,0,1-.1-0.6l-0.55-.07a46.34,46.34,0,0,1-4-8.3,18.49,18.49,0,0,1,1.18-6.92c0,0.12-.41,12,5,12.71s7.72,2,7.91-3.27a45.56,45.56,0,0,0-.89-9.11c0.68,0.66,1.34,1.32,2,1.92a1.19,1.19,0,0,0,.94,1c0.6,4.22.27,8.51,0.2,12.76-3.18.51-6.6,0.43-10.11,0.92h0Z" transform="translate(-45.97 -25.64)"/><path class="cls-19" d="M444,357.55l-0.21-.5a62,62,0,0,0,4.16-10.29c-0.18,2-.05,3.6.87,3.36,2.07-.54,6-4.75,7.37-8.2a44.41,44.41,0,0,1-2.23,5.44c-3.39,5.2-4.47,8.42-10,10.19h0Zm5.28-18.12h0Zm7.74-.79c-0.11.64-.25,1.28-0.42,1.91,0.11-.61.26-1.26,0.42-1.91h0Z" transform="translate(-45.97 -25.64)"/><path class="cls-19" d="M430.71,363.4l-0.77-.55c0-3,2.51-6.64,3.69-9.59-0.38,2.28-.51,4.2.09,4.44,1.57,0.64,2.67-1.24,5.5-4.36a40.83,40.83,0,0,0,7.3-12.3c-0.86,5.9-3.71,11.39-7.48,17.57-2.72,2.6-4.38,4.52-8.33,4.8h0Zm3.2-11.65c0.14-.8.29-1.49,0.63-2.86-0.22.91-.44,1.89-0.63,2.86h0Z" transform="translate(-45.97 -25.64)"/><path class="cls-19" d="M418.38,367.27c-2.74-2-3.34-2-3.34-5.37a51.91,51.91,0,0,0,2.15-7.24c-0.23,2.7-.21,5.21.48,6,1.73,2.06,6.92-.1,8.81-3.7s6.59-13.91,6.61-14l0,0.81c-1.81,8.19-4.49,19.1-12.14,22.93l-2.54.48h0Zm0-21h0Z" transform="translate(-45.97 -25.64)"/><path class="cls-19" d="M401.92,367.13c-0.68-.53-1.36-1-2-1.54-3.09-5.38-4.23-11.7-4.5-18.19,0,0.08,4.83,16.62,8.75,14.29s9.08-5.82,10.6-13.54c-0.72,6.74-2.67,13.31-7.33,18.18a15.94,15.94,0,0,1-5.5.8h0Z" transform="translate(-45.97 -25.64)"/><path class="cls-24" d="M300.38,353a6.15,6.15,0,0,0,.93-2.32c2.21-.7,3.41-3.91,5.37-5.5,0.73-1.26,1.49-2.5,2.24-3.73a4.56,4.56,0,0,1,.54-0.08c0.23-.52.46-1.06,0.72-1.59,0.17,0,.35-0.06.54-0.09,0.1-.71.21-1.43,0.32-2.14a2.35,2.35,0,0,0-1.83-.57c-1.07,1.21-2.11,2.43-3.17,3.62-2.48,4.17-5.6,10.89-10.72,11.68,0.4-3.2,1.54-6.68,1.15-9.9h-1.41c-1.4,3.32-.7,6.92-2.56,10.08-7.25-.06-25.84-3.71-25.84-13.41,1.71-5.38,6.82-8.4,11.82-10l11.11,0.09c4.35-.62,8.55-1.41,12.77-2.42a27.88,27.88,0,0,1-14.57,5.89c-8.8.83-17.59,6.39-10.83,9.61s13.08,10.48,13.76,3.5,5-13.72,7-9.41,0.68,10.38.68,10.38,7.67-14.6,11.28-13.21,7.22,5.92,3.38,9.28a45.47,45.47,0,0,0-5.41,5.37s6.32-.85,9.92-6a25.82,25.82,0,0,0,3.84-9.35c2.26,1.88,3.13,3.17,3.13,7.26-5.31,7.73-15.43,11.26-24.15,13h0Z" transform="translate(-45.97 -25.64)"/><path class="cls-24" d="M239.09,362.38c0-.09.07-0.2,0.11-0.32l0.44-.11-0.56.43h0Zm1.29-1,0.11-.33c1.64-.69,4.91-3.53,5.46-5.16,0.4-.12.82-0.23,1.26-0.31,0.55-1.95,6.45-4.38,8.24-5.42,8.22-1.25,8.22-1.25,13-1.56a16.56,16.56,0,0,1,4.12,2.69c-6.26,3-11.66,7.09-17.71,10.31-0.39,1.89-3.08,2.89-3.8,5.28-1.86.92-2.4,1.88-2.31,4,3.86,1.62,9.79-4.77,13.37-6.93v-1.32l-1.89.62V364c-1.87.92-3.73,1.83-5.58,2.77a1.32,1.32,0,0,1,1.13-1.13,5.72,5.72,0,0,1,.24-0.77c5.58-4.1,13.69-10.93,21-10.87l-0.71.74c-0.08.08-19.15,16.92-26.1,21.24s-7.58-1.88-3.64-9.73,13.18-9.89,17.73-11.82,3.33-3-5.76-2.17c-5.81.53-13.38,5.58-18.1,9.15h0Zm35.55-6.32a7.88,7.88,0,0,0-1.81,3,1.74,1.74,0,0,0-1.28,1.33h-0.61c-1.7,2.3-4.4,5.18-4.76,8.25a6.13,6.13,0,0,0-.71.23c-0.7,1.74-.72,2.71-0.55,2.08,2.05-.45,2.54-4.15,4.64-5,2.42-3.92,6.36-6.61,9.14-10.27,3.7,0,7.15,1.61,10.7,2.74,1.38,3-3.38,9-4.54,11.72l-0.57.07c-1.43,3.57-6.33,7.51-9.06,10.12-9.32,6.46-18.53,8.58-29.54,9a49.25,49.25,0,0,0,20.91-6.64c12-6.87,16.51-15.32,17.73-21.67s-1.67-2.89-5.15-1.86-8.79,10.23-12.12,15-4.24,2.09-4.39-1.4c-0.14-3.15,10-14.59,12-16.76h0Z" transform="translate(-45.97 -25.64)"/><path class="cls-24" d="M344.34,382.6c-9.9-.9-18.07-4.29-26.88-8.69-5.33-4.1-13.69-8.42-16.76-14.91,3.17-.13,4.1-0.46,5.69-0.45,11.2,6.22,24.47,14.76,37.7,14.15,0.21-1.62-.5-2.16-1.64-2.9-2.52-.67-2.52-0.67-8.85-3.39-4.42-2.36-4.42-2.36-5.06-2.37a3.17,3.17,0,0,0-.32.34l9.82,5.39a2.2,2.2,0,0,0-.32.34c-7.51-1.39-15.14-5.35-21.84-9.15-1.57-1.33-1.57-1.33-2.21-1.49v-0.68a21,21,0,0,0-2.84-1.67v-0.67c3.05,0,6.1-.07,9.18-0.09,4.31,1.42,14,6.08,18.34,5-0.3-4.45-4.88-4.42-8.55-5.55-4.1-.86-9.41-1.08-13.21-2.86,0.07-.26.16-0.51,0.25-0.74,1.58-.2,3.91-2.55,5.38-3.45,2.63-.1,5.26-0.19,7.9-0.26q1.44,0.42,2.8.85c-3.59-.82-11.69,1.25-9.79,2.53S336.28,354,340,357.69s4.06,5.5-.76,5.46S317.27,358,317.27,358s24.09,6.17,29.41,10.79,6.34,9.2-1.9,7.35-28.78-9.77-32.84-12.09-4.12-1.39-3.17,1.5,10.35,9.07,25.86,12.92a120.34,120.34,0,0,0,21.54,3.39c-2.79.32-4.4,0.39-11.84,0.72h0Z" transform="translate(-45.97 -25.64)"/><path class="cls-20" d="M398.67,326.88c0.06-.4.8-3.81,3.94-3.85s5.82,1.08,6.39,1.82,0.86,0.86-1.31.16-4.16-1.12-5.65-.56a12.88,12.88,0,0,0-3.36,2.42h0Z" transform="translate(-45.97 -25.64)"/><path class="cls-20" d="M398.27,328.87c1-1.08,4.62-3.16,7.24-2.62s6.27,0.74,3.08.94a45.83,45.83,0,0,0-9,1.81c-1.6.5-1.31-.13-1.31-0.13h0Z" transform="translate(-45.97 -25.64)"/><path class="cls-20" d="M398.67,330.07a8.87,8.87,0,0,0,6.79.4,13.77,13.77,0,0,0,4.68-2.53s0.46,1.14-1.65,2.5-6.33,3.08-8.33,1.93-4.22-2.54-3.14-2.59a3.12,3.12,0,0,1,1.65.3h0Z" transform="translate(-45.97 -25.64)"/><path class="cls-20" d="M419,329.64s3.39-4.59,6.23-4.51a5.89,5.89,0,0,1,4.25,1.82s-0.68-.44-3.64-0.28-6.84,3-6.84,3h0Z" transform="translate(-45.97 -25.64)"/><path class="cls-20" d="M421.85,330c1.36-1.71,5.49-2.42,7-2.1s2.53,0.95.55,1.05-7.52,1-7.52,1h0Z" transform="translate(-45.97 -25.64)"/><path class="cls-20" d="M419.75,330.76s-1.36,1.53,1.85,1.68,8.51-2.33,8.51-2.33-0.18,1.66-3.14,2.5-5.86,1.31-7,.5-1.73-1.37-1-1.86l0.74-.49h0Z" transform="translate(-45.97 -25.64)"/><path class="cls-20" d="M436,327.75a3.63,3.63,0,0,1,2.47-1.83c1.42-.48,3.45-0.53,4.07-0.09s1.54,1.12.31,0.93-4.13-.16-5.18.39a5.07,5.07,0,0,1-1.66.6h0Z" transform="translate(-45.97 -25.64)"/><path class="cls-20" d="M435.72,329.16c0.74,0,.55-0.86,2.84-1.09s4.56-.7,4-0.21a13,13,0,0,1-4.68,1.5,7.76,7.76,0,0,1-2.16-.2h0Z" transform="translate(-45.97 -25.64)"/><path class="cls-20" d="M436.21,329.91a3.52,3.52,0,0,0,3.39.64c1.85-.42,4.25-2.55,4.25-2.55s0.86,1.06-.92,2-3.95,2.25-5.05,1.68a4.16,4.16,0,0,1-1.66-1.74h0Z" transform="translate(-45.97 -25.64)"/><path class="cls-20" d="M450,330.33c0.68-.8,2-1.15,3.7-0.65s3.58,1.32,2.34,1.19-6-.54-6-0.54h0Z" transform="translate(-45.97 -25.64)"/><path class="cls-20" d="M450.26,331.38c0.74,0.25,2.53,1,3.82.59a5.88,5.88,0,0,1,2.1-.35,2.23,2.23,0,0,1-2,1.34c-1.73.23-3.88-1.57-3.88-1.57h0Z" transform="translate(-45.97 -25.64)"/><path class="cls-20" d="M450.57,333c1,0.81,2.47,1.62,3.7,1.2a10,10,0,0,0,1.91-.85,2,2,0,0,1-1.73,1.59c-1.54.23-3.88,0.28-3.88-.83a2.53,2.53,0,0,0-.8-1.79l0.8,0.68h0Z" transform="translate(-45.97 -25.64)"/><path class="cls-25" d="M209.53,375.66a70.34,70.34,0,0,0,4.8,5.66,91.86,91.86,0,0,0,17.41,7.46c5.15,0.68,10.32,1.4,15.48,2.1,5-.29,5-0.29,13.88-1.53,6.74-2.29,16.21-5,20.54-11.44,6.13-4.54,9.36-12.47,11.75-19.64,1.62,0.3,5.39,5.45,6.39,7.27,1.61,1.13,3.7,2.42,4.65,4.21a6.34,6.34,0,0,0,.67.22c0,0.18,0,.38.07,0.57,1,0.3,1.55.92,11.94,7.61,4.42,2.06,8.75,3.82,13.33,5.46,3.16,0.47,6.33.92,9.5,1.4,7.33,0.14,19.41.08,28.24-3.87a82.25,82.25,0,0,1,9,2.2c7.84,2.78-1.64,5.23-17.55,12.32s-33.56-2.09-43.69-10.54-21.21-20.94-21.21-20.94-2,4.37-9.25,14.46-15.72,13.62-29.93,17.42-26.83,3.55-37.77-2.83-10.19-5.36-14.5-12.65,6.17-4.93,6.21-4.92h0Z" transform="translate(-45.97 -25.64)"/><path class="cls-2" d="M298.46,436c-0.2-.12-0.41-0.24-0.61-0.34-0.48-13.05-1.37-27.2,1.75-39.94,2.69-1.94,7.45-1.37,10.68-1.25,1.16,2.11,4.6,9.79,6.86,10.5,0.5,1.63.5,1.63,0.75,1.8,0.64-8.48.64-8.48,0.61-12.8,1.59-3.19,4.81-1.3,7.61-.37,0.11,0.36.25,0.72,0.39,1.1-1.62,12.08-1.18,24.39-1.64,36.57-0.11.24-.23,0.48-0.34,0.74a30.09,30.09,0,0,1-6.88.61c-3-8.29-6.65-16.69-10.46-24.6-0.34.52-.34,0.52-1.3,9.07v17.35c-0.25.36-.5,0.71-0.75,1.09-2.23.15-4.46,0.3-6.67,0.47h0Z" transform="translate(-45.97 -25.64)"/><path class="cls-2" d="M268.42,434.72a33.94,33.94,0,0,1-7.59-2.38c0.82-12.37,1.78-24.53,2.12-36.9a1.62,1.62,0,0,0,1-1.23c10.11-.25,20.27-0.09,30.36-0.92,2.19,1.28,1.12,5.6.8,7.82-0.39.26-.75,0.52-1.12,0.8l-20.89.83c-2.6.7-1.73,2.49-1.73,5.12,0.32,0.34.32,0.34,0.71,0.08,4.19-.18,14.51-1.72,18.5,0,0.77,2.09.32,4.85,0.25,7.07-6.26,1.19-14.17-.55-19.7,2.39-0.91,1.81-2,5.34.09,6.57,1.28,0,2.37.35,19.68,0.57,0.89,2-.36,5.83-0.71,8l-1.25.49c-16.77,1.51-16.77,1.51-20.57,1.64h0Z" transform="translate(-45.97 -25.64)"/><path class="cls-26" d="M300.37,433.34a33.09,33.09,0,0,0-.82-6.29q0.14-7.85.32-15.67c0.77-4.68.5-10.13,2.57-14.34,3.26,0,6.26-.66,7.9,2.5,2.89,2.92,4.19,9.31,7.84,10.91,0.09,0.22.18,0.46,0.27,0.7,0.32,0.12.66,0.24,1,.39,0.2-.6.43-1.17,0.66-1.74a50.94,50.94,0,0,1,.68-13.93c1-.37,1-0.37,3.28-0.5-0.21,6.28-1.09,12.66-1.44,19,0.3,11.35.3,11.35,0.18,15.82-1,0-2,.06-3,0.09-4-7.37-5.85-15.82-10.43-23-1.34-3.48-1.34-3.48-1.8-3.93-0.59,0-1.16.09-1.73,0.15-2.35,9.47-1.89,19.53-2.32,29.3-0.64.33-.64,0.33-3.19,0.5h0Z" transform="translate(-45.97 -25.64)"/><path class="cls-2" d="M252.61,431.94c-3.17-1.17-3.17-1.17-4.21-1.95-0.64-7,2.51-15.18.89-21.64a32.76,32.76,0,0,0-3.49,5c0,5.45-4.49,6.73-7.29,2.09,0-1.17,0-1.17,1-5-1.89-3.82-1.89-3.82-2.53-4.49-3.08,3.2-1.34,19.32-5.85,19.69-3.08-1.79-5.42-2.24-5.54-5.85,1.25-9.45,3-18.78,4.58-28.16,3-.07,5.63-0.48,8.31,1,1.07,2.26,3.19,8.75,5.92,9.27,3-3.15,7.77-12.55,13.05-8.45,1.37,5.79-.46,14-1.18,20-0.11,3,.48,14.58-1.41,18.55l-2.21,0h0Z" transform="translate(-45.97 -25.64)"/><path class="cls-26" d="M266.52,432.05l-3.8-.68c0.93-11.44,1.55-23.21,2.85-34.5,9.18-.45,18.63-2,27.84-1.08-0.09,1.12-.18,2.24-0.25,3.37-3.58,1.57-10,1.06-14,1.32-8.2-.07-10-2-10,7.37,0.61,1.68.61,1.68,1,2.09,6.15,0.15,12.3-.52,18.45-0.59v4c-6.22.4-12.69,0.32-18.77,1.73-1.21,1.9-2.53,8.87-1.25,11.1,6.47,1.27,13.64.16,20.34,0.77-0.23,1.31-.43,2.65-0.64,4-7.22,1.25-14.49.88-21.82,1.13h0Z" transform="translate(-45.97 -25.64)"/><path class="cls-26" d="M252.61,429.28c-0.3-.48-0.3-0.48-2.55-1.34,0.71-7.71,1.73-15.45,1.73-23.21-0.18-.41-0.34-0.82-0.5-1.2l-0.84-.08c0,0.19,0,.38-0.07.6-2.69,1.58-3.85,3.46-5.38,6.26-2.23.63-1.69,2.76-1.39,4.58-0.14.17-.27,0.33-0.39,0.5-3.64,0-1.62-2.76-.89-4.28-1.14-3-3.26-5.45-4.81-8.19-0.59-.05-1.16-0.11-1.73-0.13-3,6-3,13.55-4.72,20l-1.39-.23c-0.21-.36-0.41-0.7-0.59-1l-0.55-.08c0.57-9.51,2.44-18.81,3.8-28.19,1.3,0.06,2.6.14,3.9,0.22a66.22,66.22,0,0,1,6,9.73,3.38,3.38,0,0,0,3.33.7c0.57-2.1,2.89-2.68,3.58-4.87,1.66-.2,3.6-6.42,6.47-3l-1.91,31.6c-0.16.52-.32,1.07-0.46,1.62h-0.62Z" transform="translate(-45.97 -25.64)"/><path class="cls-2" d="M336.11,429a24.6,24.6,0,0,1-4.56-2.93c-0.66-2.06-1.32-4.1-2-6.13,0.3-8.27.75-18.49,4.65-25.82a11.59,11.59,0,0,1,6.45-.09c0,1.94,0,1.94-.25,2.12-1.53,7.06-5.85,14.89-1.16,21.69,4.33,2.59,10.57,1.28,14.05-2.34,0-2,0-3.89,0-5.83-1.57-6.44-3.67-12.5-4.24-19.08,3.42-1,5.56-1.48,9,0,2.32,5.16,6.56,26.32,1,31.65-1.85,5-12.94,5.89-17.56,6.66-4.9,0-4.9,0-5.4.15h0Z" transform="translate(-45.97 -25.64)"/><path class="cls-26" d="M338.64,427.35c-3.85-.89-5.31-2-6.79-6V412c0.62-4,1.25-6,1.89-10.26,1.28-3.31,1.28-3.31,1.44-4.65h0.61v-1l2.23,0c-1.55,6.56-4.65,14.37-3,21.19,3.74,6.15,12.07,3.42,17.24,2,7.84-5.41.55-19.21,0.84-27.14,0.75-.14,1.53-0.27,2.3-0.39l0.71,0.75q1.61,7.25,3.26,14.56c0.48,7.36-.36,11.25-5.85,15.89l-5.38,2.61c-3.17.57-6.33,1.14-9.5,1.74h0Z" transform="translate(-45.97 -25.64)"/><path class="cls-2" d="M215.89,411.39a3.81,3.81,0,0,0-2-1.55c-3.83-5.6,2.85-11.21,8.22-7.05,1.78,3.07,1.89,4.53-.39,7.43a21.09,21.09,0,0,1-5.81,1.17h0Z" transform="translate(-45.97 -25.64)"/><path class="cls-2" d="M370.92,412c-3.92-3.19-3.87-4.57-1.71-9.12,3.49-1.69,5.6-.65,9,0.89,0.89,4.88,0,5.59-4.08,8.07-1.07,0-2.14.1-3.19,0.16h0Z" transform="translate(-45.97 -25.64)"/><path class="cls-26" d="M216.52,408.41a3.78,3.78,0,0,1-.46-3.8c1.87-.53,4.65-1.18,4.72,1.88-1.32,1.88-2.14,1.77-4.26,1.92h0Z" transform="translate(-45.97 -25.64)"/><path class="cls-26" d="M373.13,409.72c-3.55-2.25-2.62-6.71,1.71-5.1l1.59,1.42c0,0.72,0,1.43,0,2.17-2.3,1.32-2.3,1.32-3.28,1.5h0Z" transform="translate(-45.97 -25.64)"/><path class="cls-27" d="M141.91,333.11a61.18,61.18,0,0,0-8.93-2.46c-0.6,0-2.31.73-1.12,1.26s5.51,1.76,5.51,1.76-5.81-1.32-5.88-.5,3.2,1.59,6.48,2,4.39,0.78,4.24-.19-0.3-1.87-.3-1.87h0Z" transform="translate(-45.97 -25.64)"/><path class="cls-27" d="M212,347.82c-0.54.43-1.93,3.21,0.11,3.33a79.46,79.46,0,0,0,10.29.84c8.36,0.28,16.4,1.21,16.4,1.21a2.79,2.79,0,0,0,3.22-.4c1.61-1.38,5.25-1.89,1.29-2.24s-11.79-.85-17.58-1.65S212,347.82,212,347.82h0Z" transform="translate(-45.97 -25.64)"/><path class="cls-28" d="M213.53,352.66s19,1.45,22.51,1.69,4.5,0.79,3.11,1.21-17.26.61-21.44-1.15l-4.18-1.75h0Z" transform="translate(-45.97 -25.64)"/><path class="cls-27" d="M353.72,354.31s18.82-1.2,25.24-2.15,11.22-2.35,11.58-1.63,3,0.93.18,1.45-19.81,2.1-19.81,2.1,17.64-.67,19.36-0.65,1.72,0.47,1.72.47a41.56,41.56,0,0,1-9.59,1.46c-6.42.4-10.58,0.27-15.2,0.78s-10.22,1.09-11.4.54a6,6,0,0,1-2.08-2.37h0Z" transform="translate(-45.97 -25.64)"/><path class="cls-28" d="M357.07,358.33s11.13-1.72,16.28-1.68l9.59,0.08s-10.77,1-16.92,1.76-9-.17-9-0.17h0Z" transform="translate(-45.97 -25.64)"/><path class="cls-27" d="M459.73,342.8s16.73-3.28,18.92-4.14,3.77-.93,3.68.12-2.89,2.43-7.71,3-11,1.84-11,1.84l9.46-.27a78.58,78.58,0,0,0-8.76,1.24c-3.85.85-4.82,2.77-4.91,1.36a14.68,14.68,0,0,1,.26-3.16h0Z" transform="translate(-45.97 -25.64)"/><path class="cls-27" d="M482.37,357.37c-2.34-1.19-3.84-.2-7.1.11a14.75,14.75,0,0,0-5.43,1.55,61.09,61.09,0,0,0,9.11-.43c2.84-.56,2.34-0.4,3.76.78s2.51,3.7,2.42,3.2-2.76-5.21-2.76-5.21h0Z" transform="translate(-45.97 -25.64)"/><path class="cls-27" d="M480.28,359.69c-2.8,0-9.11,1.26-6.77,1.45s5.77,0.22,6.27-.62l0.5-.83h0Z" transform="translate(-45.97 -25.64)"/><path class="cls-28" d="M131.48,351.89a16.48,16.48,0,0,1,5-.2c2.18,0.26,4.32.56,4.32,0.56s-7.4.32-8.44,0.45a0.67,0.67,0,0,1-.85-0.82h0Z" transform="translate(-45.97 -25.64)"/><path class="cls-27" d="M130.77,353.64c1.52-.22,3.84-0.11,5.55-0.24s3.56-.35,3.56-0.35-3.56,1.44-5.22,1.33a7.13,7.13,0,0,0-3.61.87c-0.28.19-.66,2.7-1.38,3.79s-0.85,2.42-.62.61a47.19,47.19,0,0,1,1.71-6h0Z" transform="translate(-45.97 -25.64)"/><path class="cls-28" d="M140.81,359s1,3.76,2.65,4.86a5.47,5.47,0,0,1,2,1.72,89.92,89.92,0,0,1-.88,10.69c-0.75,4.36-1.22,10.28-1.36,11.16s-0.41-4.3.07-8.25,1.29-10.42.82-12a9.63,9.63,0,0,1-.48-1.91s-0.48.2-.61,1.63-1,7.22-1,7.22,0.48-7.15.07-8.72a5.94,5.94,0,0,0-1.16-2.67c-0.82-1.3-.07-3.75-0.07-3.75h0Z" transform="translate(-45.97 -25.64)"/><path class="cls-27" d="M159.09,363.88c-2.54,1.48-7.79,4.07-7.79,4.07a43.83,43.83,0,0,0-3.19,8.33c-0.66,3.28-2.72,10.31-3.76,14.81a33.61,33.61,0,0,0-1,5.72s4.79-15,5.82-18.64,3.29-8.89,3-7.3-2.16,10.4-2.16,10.4,2.35-6.18,3.29-9.18,2.07-3.46,4.32-4.85a2.84,2.84,0,0,0,1.5-3.37h0Z" transform="translate(-45.97 -25.64)"/><path class="cls-28" d="M443.57,367.49s0.14,5.54,4.71,6.83,6,1,6.23,1.71,3.74,18,4.43,21.79,2.36,11.93,2.36,11.93-5.4-22.91-7.48-27.49-3.88-5.71-3.88-4.74a46.53,46.53,0,0,0,1.25,5.41s-2.63-5.29-5.54-6.84-6.51-.89-5.82-4.76,3.74-3.85,3.74-3.85h0Z" transform="translate(-45.97 -25.64)"/><path class="cls-27" d="M467,362.56s1.25,6.8-1.66,9-3.46,3.16-3.46,3.16l0.42,5.41s-0.83-5.27,1.39-5.67,1.66,1.12,4.16-1.63,3.6-3.3,1.39-6.78L467,362.56h0Z" transform="translate(-45.97 -25.64)"/><path class="cls-29" d="M147.67,354.6c-0.63,1-1.33,2.44-.35,2.94s2.94,0.79,2.73-.19-2.38-2.75-2.38-2.75h0Z" transform="translate(-45.97 -25.64)"/><path class="cls-29" d="M453.6,357.45a4.44,4.44,0,0,0-3.72,3.9c0,1.56-.14,2.85,1.08,2.18s2-1.75,3.59-2.82,3.18-1.74,2.17-2.49a6.62,6.62,0,0,0-3.11-.77h0Z" transform="translate(-45.97 -25.64)"/><path class="cls-29" d="M147.16,740.66a8,8,0,0,0-5.89,1.84c-1.53,1.3-2.62,3.69-2.18,4.86s2.84,0.82,4.87-.69,4.44-2.8,4.36-4a3.33,3.33,0,0,0-1.16-2h0Z" transform="translate(-45.97 -25.64)"/><path class="cls-29" d="M465.31,740.53c-2.32-.36-5.26-0.1-6.56,1.93s-1.87,3.16.34,3.06a12.53,12.53,0,0,0,5.88-1.71c1.53-.95,1.47-2.25.91-2.77l-0.57-.51h0Z" transform="translate(-45.97 -25.64)"/><path class="cls-28" d="M212,408a6.09,6.09,0,0,0,3.43,4.43c1.88,0.64,2.63,0,4.51-.42a6.46,6.46,0,0,0,3-1.52,5.68,5.68,0,0,1-3.31,2.89c-2.17.5-4.11,1.22-5.14,0.07s-2.34-1.28-2.57-2.77A7.75,7.75,0,0,1,212,408h0Z" transform="translate(-45.97 -25.64)"/><path class="cls-28" d="M215.74,400.38c-1.37.22-2.91,1.69-2.68,2.27s1.66-1.13,2.57-1.47a15,15,0,0,0,1.66-.73l-1.54-.07h0Z" transform="translate(-45.97 -25.64)"/><path class="cls-28" d="M379.61,403.85c0.46,1.83,1.26,4.58-1,6.62s-4.35,4.08-6.18,3.49a14.17,14.17,0,0,1-4-2.55s0.57,3.44,3.54,4.38,3.55,0.6,7.2-2.68,0.46-9.26.46-9.26h0Z" transform="translate(-45.97 -25.64)"/><path class="cls-28" d="M372.52,399.33c-2.06.1-3.89,1.11-1.6,1.36s5.49,0.5,5.49.5l-3.89-1.86h0Z" transform="translate(-45.97 -25.64)"/><path class="cls-30" d="M231.63,398.07q0.38-2.39.73-4.79c1.29,0.06,2.59.14,3.89,0.22a38.59,38.59,0,0,1,3.2,4.73c-1.26.5-7.78-.16-7.82-0.17h0Z" transform="translate(-45.97 -25.64)"/><path class="cls-30" d="M353.66,397.59a25,25,0,0,1-.56-5.39c0.76-.15,1.53-0.27,2.3-0.39,0.24,0.24.47,0.48,0.72,0.75q0.45,2.06.91,4.13a20.09,20.09,0,0,1-3.36.91h0Z" transform="translate(-45.97 -25.64)"/><path class="cls-28" d="M237.1,407.41a11.81,11.81,0,0,1,1.47,2.89c0,0.65-1.52,3.92-1.05,5s3,3.72,4.39,4,1.29,0.13,2.87-1,1.58-3.45,1.64-4.15,0.06-1,.06-1l2.52-3.38a17.06,17.06,0,0,1,.18,3.23,29.13,29.13,0,0,1-.76,5.57c-0.06-.47.47-5.1,0-5.81s-0.94.34-1,.7a12.06,12.06,0,0,1-.64,4.1c-0.7,1.52-2.34,3.33-4.16,3.19a8.26,8.26,0,0,1-5.16-3c-0.88-1.3-1.41-2-.88-3.94s1.76-3.15,1.17-4.16-1.35,0-1.35,0a5.77,5.77,0,0,1,0-1.58c0.12-.94.7-0.82,0.7-0.82h0Z" transform="translate(-45.97 -25.64)"/><path class="cls-28" d="M226.79,408s-2,10.6-2.08,11.79,1.73,4.07,1.73,4.07a3.71,3.71,0,0,1-2.26-2.11,7.72,7.72,0,0,1,.24-5.13c0.77-2.56,2.38-8.63,2.38-8.63h0Z" transform="translate(-45.97 -25.64)"/><path class="cls-28" d="M272.4,404.37c-0.24,1-.29,2.72,1,2.63s7.28-.37,10-0.39a39.73,39.73,0,0,1,7.28.35c1.29,0.34,1.71,1.49,1.62,3.11s-0.43,4.72-.43,4.72,1.09-3.38,1.43-5.14,1-2.9-.38-3.68-4.81-1.33-9.28-.84-8.28,1.17-9.47.73a3.35,3.35,0,0,1-1.71-1.49h0Z" transform="translate(-45.97 -25.64)"/><path class="cls-28" d="M272,418.62c-0.32.48-1.24,2.1-.65,3.07s0.92,1.41,2.8,1.54,13.21,0.27,16.23.57,2.48-.25,2,1.74-0.43,4.26-.86,6.15,0.43,2.22-2.1,2.47-15.31,1.76-18.44,1.63-9.87-2.51-9.87-2.51-1.35.21-1.4-.82a49.23,49.23,0,0,1,.59-5.07s-3,5.65-1.35,6.58,9.06,3.53,13,3.62,7.39-1,12.51-1.19,7.82,1,8.19-1.23,0.38-7,.7-8.91,1.29-2.91-.16-3.24-12.4-.16-15.8-0.51-4.53-.09-5-0.85a7.76,7.76,0,0,1-.38-3h0Z" transform="translate(-45.97 -25.64)"/><path class="cls-28" d="M272.06,392.84c0.51,0,18.44-.43,21-0.85s2.33,0.53,3,1.48a5.17,5.17,0,0,1,.58,2.63,10.69,10.69,0,0,0-.22-4.45c-0.66-1.75-1.75-2-3.5-1.56s-15.38,1.77-17.05,2a33.44,33.44,0,0,0-3.79.77h0Z" transform="translate(-45.97 -25.64)"/><path class="cls-28" d="M247.46,423.49s-0.11,5.67.11,6.73,0.58,0.75,2.54,1.61a14.66,14.66,0,0,0,4.44,1,5.79,5.79,0,0,1-3.54.34c-1.48-.54-4.39-0.94-4.71-1.73s0.05-1.69.26-3.12,0.9-4.81.9-4.81h0Z" transform="translate(-45.97 -25.64)"/><path class="cls-28" d="M304.66,392.79s6.52-.54,7.41.06,0.59,3.94,1.93,6,3.26,4.78,3.26,4.78,0.44-4.82.37-6.75-0.74-5.13-.74-2.46,0.37,6.91-1,4.59a19.46,19.46,0,0,1-2.59-6.33c-0.52-2.45-2.37-1.06-4.67-.93a11,11,0,0,0-4,1h0Z" transform="translate(-45.97 -25.64)"/><path class="cls-28" d="M307.36,410.87a91.81,91.81,0,0,0-.78,10.94c0.17,3.39.52,9.3,0.52,11.56s0.35,2.61-1.47,3.12-8.07.37-8.07,0.37l-0.61-1.74s-2.52,2.5-.09,3.22,10.24,0.35,11-.52,1.56-1.55.69-7.12-0.26-16.86-.26-16.86a27.76,27.76,0,0,0,2.6,7.84c1.82,3.14,5.38,12.65,5.38,12.65a102.8,102.8,0,0,0-3.82-12.37c-1.82-4.19-5.12-11.08-5.12-11.08h0Z" transform="translate(-45.97 -25.64)"/><path class="cls-28" d="M326.62,405s-0.77,15.34-.68,21.14,0.68,6.66-.43,7.24-6.74.63-6.74,0.63a7.06,7.06,0,0,0,4.26,1.23c2.81,0,4.18.8,4.35-1.5s-0.43-8.36-.43-13S326.62,405,326.62,405h0Z" transform="translate(-45.97 -25.64)"/><path class="cls-28" d="M339.27,405.26s-2,5-.57,8.09,2.54,3.95,4,4.21a14.4,14.4,0,0,0,5.64-.44c2.37-.55,3-0.87,3.68-1.93s0.49-3,.41-4.66-1.55-7.62-1.55-7.62,1.06,10-.08,11.29-4.42,2-6.63,1.91-2.7-.19-3.76-2.57-1.55-2.55-1.39-4.59,0.25-3.68.25-3.68h0Z" transform="translate(-45.97 -25.64)"/><path class="cls-28" d="M362.21,401.41s2,14-.2,19.07a13.35,13.35,0,0,1-9.38,8.18c-3.87,1.09-10.6,3.17-14.38,2.53s-6.22-2.19-7.14-3.32a11.46,11.46,0,0,1-1.53-3.38s-0.2,5,3.06,6.55,4.59,1.67,8.87,1.4,8.16-.54,12.44-2.34,5.1-1.89,7.34-4.43a13.5,13.5,0,0,0,3.36-10.17c-0.2-4.49-2.45-14.09-2.45-14.09h0Z" transform="translate(-45.97 -25.64)"/><path class="cls-27" d="M137.16,376.77s-4.22,26-5.55,35.14-2.28,22-3.43,36.73-2.79,30.3-3,35-1.5,21.49-2.26,33.22-1.14,18.91-1.14,18.91,5-56.48,5.89-64,4.63-54.35,7.56-72.83,1.88-22.22,1.88-22.22h0Z" transform="translate(-45.97 -25.64)"/><path class="cls-27" d="M467.84,386.47s5.91,30.39,8.27,47.75,5.52,53.64,6.3,74.53,2.36,50.46,2.76,61.1,0.53,32.36.53,32.36-5.25-101.91-7.43-124.06-8.64-68.52-10-76.4-3.44-13.08-1.92-14.18l1.52-1.09h0Z" transform="translate(-45.97 -25.64)"/><path class="cls-28" d="M154,383.64s1-3.58,2.28-3.92,10.6,1.14,18,2.08,22.33,2.46,22.33,2.46-18.56-3-25.48-4.15-11.65-2.2-14.27-1.87-2.45.94-2.63,1.82a31.44,31.44,0,0,0-.18,3.59h0Z" transform="translate(-45.97 -25.64)"/><path class="cls-28" d="M389.57,392.06s32.91-3.42,42.73-5.32,12.62-2.06,13.61-1.33,1.62,1.55,2.52,5.61,1.44,8.67,1.44,8.67,0.27-9.37-1.08-13-1.26-4.52-5.41-4.19-26.6,4.92-33.63,6-20.2,3.53-20.2,3.53h0Z" transform="translate(-45.97 -25.64)"/><path class="cls-27" d="M150.29,696.06s2.54,28.25,7,30.5,9.51,0.4,23.15-1.39,21.88-2.35,21.88-2.35-33.64,6.44-39,6.63-6.63,2-8.65-.9-3.08-7.38-3.55-13.2-0.84-19.29-.84-19.29h0Z" transform="translate(-45.97 -25.64)"/><path class="cls-27" d="M454.26,672.67s-6.94,50.2-9.59,54.48-11.9-.76-22.16-1.18-34.39-6.24-54.23-7.4S316,716.16,316,716.16s46,5.34,63.49,7.47S432.11,733,439.38,734s8.93,0.07,10.25-5.54,4.63-55.85,4.63-55.85h0Z" transform="translate(-45.97 -25.64)"/><path class="cls-27" d="M218.33,722s22.78-1.44,46.57-3.07,44.94-2.27,44.94-2.27-32.33,4.41-43.93,5.33-47.59,0-47.59,0h0Z" transform="translate(-45.97 -25.64)"/><path class="cls-27" d="M278.72,722.07s21.47-2.62,32.2-3,18.35,0.78,32.66,2.45,23.18,2.84,23.18,2.84-40.91-4.54-46.51-4-41.53,1.68-41.53,1.68h0Z" transform="translate(-45.97 -25.64)"/><path class="cls-27" d="M199.74,697.38c-2-.25-4.17.2-6.85,2s-4.41,3.2-4.65,5.8,0,4.26,1.57,5.61,2.36,1.36,1.42.33-2.52-4.36-1.1-6.71,5-5,7.56-5.3,2.6-1.08,4.41,0,1.82,2,2.36.41-1.65-1.83-2.68-2.07a5.12,5.12,0,0,0-2,0h0Z" transform="translate(-45.97 -25.64)"/><path class="cls-27" d="M199.19,713.46a39.72,39.72,0,0,0,13-.92c6.06-1.68,8.19-2.53,12-3.61a123.67,123.67,0,0,0,13.39-4.79c5.45-2.24,6.57-2.41,12.08-4.36s7.5-2.64,10.61-3.61A43.08,43.08,0,0,1,272.66,694c5.11-.08,7.29-0.18,9.91.81s4.68,2,5.47,3.45,1.15,3.6.61,4.69-0.3.06-1-1.71-3.77-4.35-6.14-5a15.77,15.77,0,0,0-7.78-.92c-4.19.39-10.76,0.94-14.28,2.13s-7.54,2.37-8.75,2.84-17,6.72-22.42,8.79-15.66,6.12-21.05,6.61-8-2.18-8-2.18h0Z" transform="translate(-45.97 -25.64)"/><path class="cls-27" d="M271.41,706.91c-1.07-.52-3,0.34-2.09,1.09a8.8,8.8,0,0,0,4.89,2.25c2.79,0.43,4.11.25,6-.72s3.49-3.14,3.45-3.95-1.1,1-2.31,1.67-5.66,1.46-7.42.82a10.53,10.53,0,0,1-2.46-1.16h0Z" transform="translate(-45.97 -25.64)"/><path class="cls-27" d="M326.41,691.91c-1.55.27-4.52,2.22-4.87,3.71s-2.26,7-.71,5.08,3.11-5.56,5.43-6.25a16.1,16.1,0,0,1,7.55-.57c2.4,0.52,3,1.37,8.33,2.83s12.49,3.78,15.46,4.72,14.55,4.26,18.59,5.55,7.22,2.13,12.07,3.71,6,2.45,8,2.86a74.25,74.25,0,0,0,9,1.26c2.76,0.13,3,.34,5.3-0.79s3.38-2.94,2.55-2.32-3.9,2.52-6.65,2a107.79,107.79,0,0,1-12-2.7c-4.42-1.39-6.5-1.82-10.4-3s-27.11-8.59-31.32-9.63-14.56-4.45-16.72-5.13a47,47,0,0,0-6.9-1.18,10.94,10.94,0,0,0-2.76-.11h0Z" transform="translate(-45.97 -25.64)"/><path class="cls-27" d="M312.36,696.07c-2.66-2-5.45-4-10.49-3.21s-7.24,3.86-7.5,5.79,3.52,6.08,3.59,5.49-1.59-4.07.33-5.52,7.24-2.27,9.43-.92,2.79,3.62,4.85,2.24-0.2-3.86-.2-3.86h0Z" transform="translate(-45.97 -25.64)"/><path class="cls-27" d="M305,700.33c-1.53-.88-2.86-0.89-2.92-0.09a1.59,1.59,0,0,0,2,1.28,1.64,1.64,0,0,0,.93-1.19h0Z" transform="translate(-45.97 -25.64)"/><path class="cls-27" d="M211.7,718.11s-11.15.41-7.1,1.84,7.1,1.58,8-.06a1.09,1.09,0,0,0-.89-1.78h0Z" transform="translate(-45.97 -25.64)"/><path class="cls-27" d="M304.78,713.15c-3.89-.37-13.19-0.11-8.12,1.28s9.64,1.6,10,.08-1.86-1.37-1.86-1.37h0Z" transform="translate(-45.97 -25.64)"/><path class="cls-27" d="M335.71,705.3s-1.92,3.06-4,3.63-5.48.45-6.59-.72a34.06,34.06,0,0,1-2.85-4s0.58,3.67,1.65,4.7,4.14,2.62,6,2.42,5-1.79,5.66-3,1-1.73.71-2.23a7.82,7.82,0,0,0-.58-0.81h0Z" transform="translate(-45.97 -25.64)"/><path class="cls-27" d="M405,719.32c-4.79-.86-7.3-2.46-9.64-1.71s-4.19,1.16,1.42,2.13,9.53,2.09,10.07,1.06-1.85-1.49-1.85-1.49h0Z" transform="translate(-45.97 -25.64)"/><path class="cls-27" d="M403.76,695.82c-2.68.1-7.37,2.32-4.26,2.89s5.79-1.54,9.14-.35,6.34,3,7.25,6.16-0.37,5.86.55,5.8,2.38-3.76,1.4-6.09a10.8,10.8,0,0,0-5.48-6c-3-1.49-3.72-2.23-5.3-2.3l-3.29-.15h0Z" transform="translate(-45.97 -25.64)"/><path class="cls-27" d="M136.18,700s2.66,33.1,1.83,34.42-5.65,4.27-6.65,7.09-1,8-1,8-2.66-4.68-1.5-8.32,4.49-6.11,5.65-7.43,0.66-10.3.66-10.3,1.83,9.82,1.83,7.66S136.18,700,136.18,700h0Z" transform="translate(-45.97 -25.64)"/><path class="cls-28" d="M144.53,731.4c0.34,1.34.27,2.86,1.1,2.87a25.89,25.89,0,0,1,2.93.1c1,0.12,2.59.78,2.13,0.44a17.48,17.48,0,0,0-4.38-1.52,2.43,2.43,0,0,1-1.79-1.88h0Z" transform="translate(-45.97 -25.64)"/><path class="cls-27" d="M159.69,746s0.32,9.11-3.75,11.86-5.36,3.49-5.36,3.49-0.64,4.28.21,6.86,2.79,8.6,2.79,8.6-2-10.41-1.5-12.44,1.61-1.59,1.71-.84a28.76,28.76,0,0,0,1,3.12s-0.76-3.44.26-5.25,2.42-2,3.49-4.26S159.69,746,159.69,746h0Z" transform="translate(-45.97 -25.64)"/><path class="cls-28" d="M135.9,759.62c2.68,0.88,7.29.6,8,2s1.18,7.08,1.07,5.9-1.61-5.26-3.75-5.71a26,26,0,0,1-5.36-2.19h0Z" transform="translate(-45.97 -25.64)"/><path class="cls-28" d="M121.46,692.83s3,34.17,2.62,36.51-1.52,3.58-4.83,4.11-5.79,0-6.49,1.6-0.69,7.32-.69,7.32,0.41-5.94,5.93-7.14,6.07,0.19,7.31-3.53-3.86-38.87-3.86-38.87h0Z" transform="translate(-45.97 -25.64)"/><path class="cls-27" d="M117.65,747.64c0.2,1,.05,1.72-2.07,2.21s-3.13.33-3.54,1.74-0.2,9.67-.2,9.67,0.05-6.48.86-7.29,2-1.15,1.31-1.41-2-1.13-1.42-1.33a21.41,21.41,0,0,0,3.84-.73c1.47-.6,2.68-1.7,2.22-2.36a1,1,0,0,0-1-.51h0Z" transform="translate(-45.97 -25.64)"/><path class="cls-27" d="M470.7,704.15s-3.29,26.25-3.24,28.68,3.09,4,4.86,6.52,2.94,4.88,2.5,3-4.86-7.4-5.15-9.61,1-28.55,1-28.55h0Z" transform="translate(-45.97 -25.64)"/><path class="cls-27" d="M473.77,752.73c-0.6.83-1.91,8.23-9,8.17s-7.77-1-7.77-1l-3.94,11.68s3-8.34,4.42-8.81,0.72,3.71.72,3.71,0.3-1.61,2.75-3,2.75,0.26,6.22-.78,6.57-10,6.57-10h0Z" transform="translate(-45.97 -25.64)"/><path class="cls-27" d="M449.27,744s-0.72,6,.6,7.54a5.89,5.89,0,0,0,2,1.81l-1.55,6.32s0.72-3.82-.84-6-2.63-3.61-1.79-6.11a16.37,16.37,0,0,1,1.55-3.57h0Z" transform="translate(-45.97 -25.64)"/><path class="cls-27" d="M487,675.44s-3.12,42.79-3.86,49.77-1.84,7.52.92,8.28,11,2.66,11,2.66l-1.84,12.48s1.29-8.44-1.65-9.75-7-2.82-9.56-3.94-2.76-1.13-1.84-7,6.8-52.5,6.8-52.5h0Z" transform="translate(-45.97 -25.64)"/><path class="cls-27" d="M489.61,756.23c-0.69,1.66.49,1.95,2.36,3s3.4,0.38,2.85,2.25-1.94,9.15-1.94,9.15,0.69-6.31.42-8.12-0.76-1.39-2.64-2.59-3.54-2.46-2.29-3.07l1.25-.61h0Z" transform="translate(-45.97 -25.64)"/><path class="cls-31" d="M150.32,509.25q0.22-7.58.51-15.15c0.61-1.26,1.34-2.88.66-4.23,0.62-20.51,1.79-41,2.84-61.45,1.9-19.21,1.9-19.21,1.9-22.2a160,160,0,0,0,3-21.17c3.61,0.55,3.77.79,33.58,4.73,2.52,0,18.42,2.16,20.64,2.23-0.42,1.86-2.31,2.1-2.66,3.75l-0.56.06c-0.22.52-.46,1.06-0.68,1.6l-0.58.06c-0.59,1.36-2.09,3.21-3.41,5.9-0.53,1.76-1.05,3.53-1.58,5.29,0,4.71,2.16,6.6,4.79,10,7,5,13.8,10.3,22,13.28,0.91,0.66,5.06,2,6,2.68l11.12,4.12a267.4,267.4,0,0,0,37.9,7.28c17.79,0.15,37.29.59,54.43-4.85,1.45-.22,2.93-0.43,4.41-0.62a155,155,0,0,0,28.8-11.38c2.87-2,13.57-7.61,14.46-11.14,6.4-5.21,6.06-12.46,4.27-20.06,9.78-.78,19.33-2.07,29-3.61,7-.61,14.81-3,21.69-2.75,1.57,13.56,4.13,27.68,4.13,41.29,0.31,1,.31,3.31.63,4,1,13.63,1.27,27.32,2.58,40.93,0.41,17.78.91,35.61,1.55,53.38v0.05c-0.11-2.61-1.15-26.74-4.35-57.59-3.6-34.67-7.79-70.2-10.39-74.12s-6.49-.49-16.45.73-21.21,2.85-21.21,2.85,3.9,8.26-2.6,18.16-16,15-39.83,23.91-37.66,7.91-60.61,9-49.35-6.91-68.4-14.86-29-18-29.87-29.69,5.2-12.51,5.2-12.51-2.6-.45-12.55-1.84-23.38-3.23-26.84,5-13.45,107.84-13.5,109h0Z" transform="translate(-45.97 -25.64)"/><path class="cls-28" d="M217.95,404.88c-0.83-.08-1.67,0-1.25.71s1,0.84,1.48.32a0.72,0.72,0,0,0-.23-1h0Z" transform="translate(-45.97 -25.64)"/><path class="cls-28" d="M373.55,405c-0.94-.06-1.57.34-1.54,0.83s-0.11.9,0.78,1,1.7-.28,1.59-0.74a3.27,3.27,0,0,0-.84-1.12h0Z" transform="translate(-45.97 -25.64)"/><path class="cls-32" d="M289.54,345.63s1-9,4-11.09,6.24-1.79,6.66.69a36.37,36.37,0,0,1,.21,5.6c0.07-.35,2.05-3.81,1.35-6.22s-1.06-3.2-3.33-2.86-5.1.81-6.38,1.51-1.77.55-1.28,1.62a1,1,0,0,1-1,1.55c-0.85,0-.85.49-0.35,1.41s0.21,1-.64,1.34-1.2.34-.5,1.48,1,1.14.28,1.7-0.78.91-.21,1.77a10.9,10.9,0,0,1,1,2.7l0.14-1.2h0Z" transform="translate(-45.97 -25.64)"/><path class="cls-32" d="M305.35,334.3s2.44-2.14,3.76-2.5,2.86,1.29,3.8,1.86,3.05,3.31,3.1,5-2.11,4.87-2.11,4.87a17.55,17.55,0,0,0,2.58-2.75c1-1.4,1.41-2.57.85-2.76s-1-.53-0.42-1.83,0.52-1.87-.33-1.83-1.69,0-1.5-1.23,0.19-2.16-1-1.79-1.93.55-2.07-.44-0.61-2.4-1.64-1.52-1.27,1.44-2.11.73-1.78-.48-1.74.55,0.14,2.3-.85,1.87-1.08.46-1,1.21,0.14,1.36.14,1.36l0.52-.75h0Z" transform="translate(-45.97 -25.64)"/><path class="cls-32" d="M259.77,354.65c-2.68,0-14.33,6.9-16.71,11.74s-6.39,12.45-2.06,14.24,20.73-10.47,20.73-10.47a40.74,40.74,0,0,0-3.92,5.44c-1.13,2.16-1.24,1.44-3.61,2s-3.71,1.93-5.36,3.36-4.43,2.65-5.88,1.91a6.72,6.72,0,0,0-5.16-.77c-2,.6-3.92-0.24-3-2.09s1.44-3.19-1.65-3.22-2.17-2,.1-3.2,5.05-2.13,4.23-3.79,0.1-1.76,2-3.19a9,9,0,0,0,3.3-4.1c0.93-2,1.34-1.44,3.82-2.24s2.78-.91,4.43-3,1-1.64,3.71-2.34a14.38,14.38,0,0,1,5.05-.37h0Z" transform="translate(-45.97 -25.64)"/><path class="cls-32" d="M281.33,360a34.91,34.91,0,0,0-8,9.23c-2.48,4.32-2.78,9.79-6.6,9.45s-4.64-5.41-4.64-5.41-1.34,4.22.52,5.79,2.68-.7,2.89.23a1.42,1.42,0,0,0,2.27.85c0.93-.72,1.75-2.15,3.09-2.76s3.61-3.17,3.61-4.83-0.41-3.21,1.55-4.64,1.75-1.84,3-4,2.37-3.91,2.37-3.91h0Z" transform="translate(-45.97 -25.64)"/><path class="cls-32" d="M327.05,351.83s10.4,0.68,14.32,4.3,5.88,6.87,4.43,7.45a18.52,18.52,0,0,1-4.26.82c0.43-.08,2.64,2.07,3.92,1.31s-0.51-2.65,1.79-1.78,1.88-.24,1.45-1.27-2.81-1.81-2-3.17,0.09-1.7-1.11-2-2.39-.36-2.9-1.9-0.43-1.88-2.47-2.07-3.24.14-3.84-1.14-0.77-1-2.9-1-6.39.37-6.39,0.37h0Z" transform="translate(-45.97 -25.64)"/><path class="cls-32" d="M348.54,368.8a15.82,15.82,0,0,1,4.18,4.21c1.45,2.4,1.28,5-.34,5.28s-17.05-3.3-25.07-6.43-15.77-7-15.77-7,4.69,3.19,5.8,4.57,1.88,0.61,3.58,1.22a7.57,7.57,0,0,1,3.15,2.24c0.68,0.69,4.26,1.14,6.65,1.68s2.13,1.81,3.84,2.5,0.26-.51,3.33.11,2.22,1.13,4.35,1.49,1.88-.84,4.09.12,2.9,1.47,4.52,1.15,2.73,0.19,4.18.29,2.47-.58,1.71-1.95,0-.68,1.71-1.78,1-1.7-1.11-2.65-3.41-1.22-3-2.67,0.43-2-1.45-2.06-4.35-.29-4.35-0.29h0Z" transform="translate(-45.97 -25.64)"/><path class="cls-33" d="M302.57,693.81c-1.62-.06-4.82.63-5.74,2.16s-0.29,1.46,1.25,1.05a16.36,16.36,0,0,0,4.66-1.92c1-.74-0.17-1.29-0.17-1.29h0Z" transform="translate(-45.97 -25.64)"/><path class="cls-34" d="M270.65,166.53c-2.25.46-7.71,3.47-11.09,8.19S252.81,187,254.65,185s4.5-11.29,4.9-7,1.19,5.11,2,1.54,0.64-7.15,1.77-3.68,2.49,1.71,2.81-.7,0.56-5.7,1.93-3.36,3.62,3.89,4,1.4,0.48-5.3,2.17-1.75,4.1,5.18,3.62,3.32,0.8-1.92,1.85-.06-0.32-2.17-2.25-4.52-1.21-3.06-4-3.33l-2.81-.26h0Z" transform="translate(-45.97 -25.64)"/><path class="cls-34" d="M312.4,183.59s2.86-3.86,4.89-4.8a6.83,6.83,0,0,1,6.92.83c2.09,1.63,3.7,6.66,4.65,9.06s0,3.11,0,1.55-2.86-7.91-2.86-5.52-0.6,2-.89.47,0.89-4.18-.48-2.69-1.31,2-1.43.41,0.42-3.64-.72-1.8-1.19,2.32-1.67.76-1-3-1.37-1.33-0.48,2.39-1.19,1.24-0.78-1.86-1.67-.61-1.67,2.14-2,1.6-2.21.82-2.21,0.82h0Z" transform="translate(-45.97 -25.64)"/><path class="cls-34" d="M223.11,197.26c-5.55,2.54-18.31,21.67-14.24,18.19s10-6.76,11.84-11a37.13,37.13,0,0,0,2.4-7.19h0Z" transform="translate(-45.97 -25.64)"/><path class="cls-34" d="M222.56,204.84s-13.87,14.49-12.2,14.69,8.69-6.4,8.69-6.4-4.44,8.1-3.51,8.11,4.62-3.47,5.92-7-0.37-3.15-.37-3.15l1.48-6.27h0Z" transform="translate(-45.97 -25.64)"/><path class="cls-34" d="M220.5,219.43c-1.17,1.45-3.39,4-2.78,5.19s1,2.43,1.61.46,1.49-3.38,1.49-4.23a3.11,3.11,0,0,0-.32-1.42h0Z" transform="translate(-45.97 -25.64)"/><path class="cls-34" d="M199.52,214.38c0.15,1.45-1,13.49,1.16,12.06S203,225.3,202,222.1s-2.47-7.71-2.47-7.71h0Z" transform="translate(-45.97 -25.64)"/><path class="cls-34" d="M194.15,219.27s7.11,8.62,6,11.08-1.89,12-3.34,9.12-6.82-18.93-4.21-14.41,4,8,3.52,4.58-1.63-4.86-2.5-8.2,0.58-2.17.58-2.17h0Z" transform="translate(-45.97 -25.64)"/><path class="cls-34" d="M198.21,244.13s-8.27-2.68-6,.24,5.08,4,5.81,2.66a3.91,3.91,0,0,0,.15-2.9h0Z" transform="translate(-45.97 -25.64)"/><path class="cls-34" d="M199.08,249.66c-2.18-.6-7.69-1.52-5.37.25s5.81,4.4,5.81,3.1a20.61,20.61,0,0,0-.44-3.34h0Z" transform="translate(-45.97 -25.64)"/><path class="cls-34" d="M200,255.9s-6.24,3.43-3.92,3.6,4.5,0.18,4.5-.83a11.87,11.87,0,0,0-.58-2.76h0Z" transform="translate(-45.97 -25.64)"/><path class="cls-34" d="M356.22,196.47c-0.48,2.74,2.86,13.12,4.77,15.57s2-.34,1.55-4.65-1.31-8.73-3.82-9.83l-2.5-1.1h0Z" transform="translate(-45.97 -25.64)"/><path class="cls-34" d="M368.38,212.46c-1.55,2.14-5.25,2-5.61,5s1.67,10.29,2.5,6.83,3.1-11.8,3.1-11.8h0Z" transform="translate(-45.97 -25.64)"/><path class="cls-34" d="M373,219.43c-2.86,2.13-8.71,10.68-6.8,9.74s6-6.64,5-4-1.07,5.13.6,2.39,2.86-5.71,2-6.91l-0.83-1.2h0Z" transform="translate(-45.97 -25.64)"/><path class="cls-27" d="M143.64,470.3s-2.33,73.66-1.16,103.52,2.33,53.12,3.1,65.52,1.16,19,1.16,19-7.37-55.44-8.14-88.4,5-99.64,5-99.64h0Z" transform="translate(-45.97 -25.64)"/><path class="cls-35" d="M163.93,783.72c1.5-.12,6.11-0.92,7-2.42s-0.58-7.39-1.27-12.7a62.5,62.5,0,0,1-.35-10.62s11.41-2.42,22.48-3.81,29.28-3.58,42.64-4.62,23.17-1.78,34.42-2.14,22.23-.55,31.95-0.36,34.64,0.59,47.31,1.46,22,1.83,25.7,2.35,31.08,2.45,40.59,3.58,16.35,1.47,19.79,2.49,4.85,3.54,3.24,8.09-4.55,14.36-4.55,14.36,6.88-13.24,7.48-16.68,2-6.47-1.11-7.89S423.41,752,410.46,751s-41.84-4.25-58.12-5.11-38.34-1.48-47.83-1.48-65.66,1.77-83.7,3.91-43.06,5.86-48.84,6.89-5.52-.51-5.65,3.47,3.21,17.09,3,19.66-5.34,5.35-5.34,5.35h0Z" transform="translate(-45.97 -25.64)"/><text class="cls-36" transform="translate(111.34 651.94)">404</text><text class="cls-37" transform="translate(134.22 487.67) scale(1.32 1)">Error</text></svg>